{"asset":{"version":"2.0","generator":"ProjectE Tools/DemoMap/GltfKit.py"},"scene":0,"scenes":[{"nodes":[0,1,2,3,4,5,6,7,8,9,10,11,12,13,14,15,16,17,18,19,20,21,22,23,24,25,26,27,28,29,30,31,32,33,34,35,36,37,38,39,40,41,42,43,44,45,46,47,48,49,50,51,52,53,54,55,56,57,58,59,60,61,62,63,64,65,66,67,68,69,70,71,72,73,74,75,76,77,78,79,80,81,82,83,84,85,86,87,88,89,90,91,92,93,94,95,96,97,98,99,100,101,102,103,104,105,106]}],"nodes":[{"name":"wall_standard_standard_01_0","mesh":0,"matrix":[0.0,0.0,-1.0,0.0,0.0,1.0,0.0,0.0,1.0,0.0,0.0,0.0,-24.0,0.0,12.0,1.0]},{"name":"base_standard_standard_01_1","mesh":1,"matrix":[0.0,0.0,-1.0,0.0,0.0,1.0,0.0,0.0,1.0,0.0,0.0,0.0,-24.0,0.0,12.0,1.0]},{"name":"wall_door_centered_large_01_2","mesh":2,"matrix":[0.0,0.0,-1.0,0.0,0.0,1.0,0.0,0.0,1.0,0.0,0.0,0.0,-24.0,0.0,9.0,1.0]},{"name":"door_centered_large_01_3","mesh":3,"matrix":[0.0,0.0,-1.0,0.0,0.0,1.0,0.0,0.0,1.0,0.0,0.0,0.0,-24.0,0.0,9.0,1.0]},{"name":"wall_standard_standard_01_4","mesh":0,"matrix":[0.0,0.0,-1.0,0.0,0.0,1.0,0.0,0.0,1.0,0.0,0.0,0.0,-24.0,0.0,6.0,1.0]},{"name":"base_standard_standard_01_5","mesh":1,"matrix":[0.0,0.0,-1.0,0.0,0.0,1.0,0.0,0.0,1.0,0.0,0.0,0.0,-24.0,0.0,6.0,1.0]},{"name":"wall_door_garage_door_01_6","mesh":4,"matrix":[0.0,0.0,-1.0,0.0,0.0,1.0,0.0,0.0,1.0,0.0,0.0,0.0,-24.0,0.0,0.0,1.0]},{"name":"door_garage_door_01_7","mesh":5,"matrix":[0.0,0.0,-1.0,0.0,0.0,1.0,0.0,0.0,1.0,0.0,0.0,0.0,-24.0,0.0,0.0,1.0]},{"name":"wall_standard_standard_01_8","mesh":0,"matrix":[0.0,0.0,-1.0,0.0,0.0,1.0,0.0,0.0,1.0,0.0,0.0,0.0,-24.0,0.0,-3.0,1.0]},{"name":"base_standard_standard_01_9","mesh":1,"matrix":[0.0,0.0,-1.0,0.0,0.0,1.0,0.0,0.0,1.0,0.0,0.0,0.0,-24.0,0.0,-3.0,1.0]},{"name":"wall_door_recessed_large_01_10","mesh":6,"matrix":[0.0,0.0,-1.0,0.0,0.0,1.0,0.0,0.0,1.0,0.0,0.0,0.0,-24.0,0.0,-6.0,1.0]},{"name":"door_recessed_large_01_11","mesh":7,"matrix":[0.0,0.0,-1.0,0.0,0.0,1.0,0.0,0.0,1.0,0.0,0.0,0.0,-24.0,0.0,-6.0,1.0]},{"name":"wall_standard_standard_01_12","mesh":0,"matrix":[0.0,0.0,-1.0,0.0,0.0,1.0,0.0,0.0,1.0,0.0,0.0,0.0,-24.0,0.0,-9.0,1.0]},{"name":"base_standard_standard_01_13","mesh":1,"matrix":[0.0,0.0,-1.0,0.0,0.0,1.0,0.0,0.0,1.0,0.0,0.0,0.0,-24.0,0.0,-9.0,1.0]},{"name":"wall_standard_standard_01_14","mesh":0,"matrix":[0.0,0.0,-1.0,0.0,0.0,1.0,0.0,0.0,1.0,0.0,0.0,0.0,-24.0,0.0,-12.0,1.0]},{"name":"base_standard_standard_01_15","mesh":1,"matrix":[0.0,0.0,-1.0,0.0,0.0,1.0,0.0,0.0,1.0,0.0,0.0,0.0,-24.0,0.0,-12.0,1.0]},{"name":"wall_door_centered_small_01_16","mesh":8,"matrix":[0.0,0.0,-1.0,0.0,0.0,1.0,0.0,0.0,1.0,0.0,0.0,0.0,-24.0,0.0,-15.0,1.0]},{"name":"door_centered_small_01_17","mesh":9,"matrix":[0.0,0.0,-1.0,0.0,0.0,1.0,0.0,0.0,1.0,0.0,0.0,0.0,-24.0,0.0,-15.0,1.0]},{"name":"wall_window_centered_medium_01_18","mesh":10,"matrix":[0.0,0.0,-1.0,0.0,0.0,1.0,0.0,0.0,1.0,0.0,0.0,0.0,-24.0,3.0,12.0,1.0]},{"name":"window_centered_medium_01_19","mesh":11,"matrix":[0.0,0.0,-1.0,0.0,0.0,1.0,0.0,0.0,1.0,0.0,0.0,0.0,-24.0,3.0,12.0,1.0]},{"name":"cornice03_standard_standard_01_20","mesh":12,"matrix":[0.0,0.0,-1.0,0.0,0.0,1.0,0.0,0.0,1.0,0.0,0.0,0.0,-24.0,3.0,12.0,1.0]},{"name":"wall_window_centered_medium_02_21","mesh":13,"matrix":[0.0,0.0,-1.0,0.0,0.0,1.0,0.0,0.0,1.0,0.0,0.0,0.0,-24.0,6.0,12.0,1.0]},{"name":"window_centered_medium_02_22","mesh":14,"matrix":[0.0,0.0,-1.0,0.0,0.0,1.0,0.0,0.0,1.0,0.0,0.0,0.0,-24.0,6.0,12.0,1.0]},{"name":"cornice03_standard_standard_01_23","mesh":12,"matrix":[0.0,0.0,-1.0,0.0,0.0,1.0,0.0,0.0,1.0,0.0,0.0,0.0,-24.0,6.0,12.0,1.0]},{"name":"cornice01_standard_standard_01_24","mesh":15,"matrix":[0.0,0.0,-1.0,0.0,0.0,1.0,0.0,0.0,1.0,0.0,0.0,0.0,-24.0,8.85,12.0,1.0]},{"name":"crown_standard_standard_01_25","mesh":16,"matrix":[0.0,0.0,-1.0,0.0,0.0,1.0,0.0,0.0,1.0,0.0,0.0,0.0,-24.0,9.0,12.0,1.0]},{"name":"wall_window_centered_large_01_26","mesh":17,"matrix":[0.0,0.0,-1.0,0.0,0.0,1.0,0.0,0.0,1.0,0.0,0.0,0.0,-24.0,3.0,9.0,1.0]},{"name":"window_centered_large_01_27","mesh":18,"matrix":[0.0,0.0,-1.0,0.0,0.0,1.0,0.0,0.0,1.0,0.0,0.0,0.0,-24.0,3.0,9.0,1.0]},{"name":"cornice03_standard_standard_01_28","mesh":12,"matrix":[0.0,0.0,-1.0,0.0,0.0,1.0,0.0,0.0,1.0,0.0,0.0,0.0,-24.0,3.0,9.0,1.0]},{"name":"wall_window_centered_large_02_29","mesh":19,"matrix":[0.0,0.0,-1.0,0.0,0.0,1.0,0.0,0.0,1.0,0.0,0.0,0.0,-24.0,6.0,9.0,1.0]},{"name":"window_centered_large_02_30","mesh":20,"matrix":[0.0,0.0,-1.0,0.0,0.0,1.0,0.0,0.0,1.0,0.0,0.0,0.0,-24.0,6.0,9.0,1.0]},{"name":"cornice03_standard_standard_01_31","mesh":12,"matrix":[0.0,0.0,-1.0,0.0,0.0,1.0,0.0,0.0,1.0,0.0,0.0,0.0,-24.0,6.0,9.0,1.0]},{"name":"cornice01_standard_standard_01_32","mesh":15,"matrix":[0.0,0.0,-1.0,0.0,0.0,1.0,0.0,0.0,1.0,0.0,0.0,0.0,-24.0,8.85,9.0,1.0]},{"name":"crown_standard_standard_01_33","mesh":16,"matrix":[0.0,0.0,-1.0,0.0,0.0,1.0,0.0,0.0,1.0,0.0,0.0,0.0,-24.0,9.0,9.0,1.0]},{"name":"wall_window_centered_double_01_34","mesh":21,"matrix":[0.0,0.0,-1.0,0.0,0.0,1.0,0.0,0.0,1.0,0.0,0.0,0.0,-24.0,3.0,6.0,1.0]},{"name":"window_centered_double_01_35","mesh":22,"matrix":[0.0,0.0,-1.0,0.0,0.0,1.0,0.0,0.0,1.0,0.0,0.0,0.0,-24.0,3.0,6.0,1.0]},{"name":"cornice03_standard_standard_01_36","mesh":12,"matrix":[0.0,0.0,-1.0,0.0,0.0,1.0,0.0,0.0,1.0,0.0,0.0,0.0,-24.0,3.0,6.0,1.0]},{"name":"wall_window_centered_double_02_37","mesh":23,"matrix":[0.0,0.0,-1.0,0.0,0.0,1.0,0.0,0.0,1.0,0.0,0.0,0.0,-24.0,6.0,6.0,1.0]},{"name":"window_centered_double_02_38","mesh":24,"matrix":[0.0,0.0,-1.0,0.0,0.0,1.0,0.0,0.0,1.0,0.0,0.0,0.0,-24.0,6.0,6.0,1.0]},{"name":"cornice03_standard_standard_01_39","mesh":12,"matrix":[0.0,0.0,-1.0,0.0,0.0,1.0,0.0,0.0,1.0,0.0,0.0,0.0,-24.0,6.0,6.0,1.0]},{"name":"cornice01_standard_standard_01_40","mesh":15,"matrix":[0.0,0.0,-1.0,0.0,0.0,1.0,0.0,0.0,1.0,0.0,0.0,0.0,-24.0,8.85,6.0,1.0]},{"name":"crown_standard_standard_01_41","mesh":16,"matrix":[0.0,0.0,-1.0,0.0,0.0,1.0,0.0,0.0,1.0,0.0,0.0,0.0,-24.0,9.0,6.0,1.0]},{"name":"wall_window_centered_medium_01_42","mesh":10,"matrix":[0.0,0.0,-1.0,0.0,0.0,1.0,0.0,0.0,1.0,0.0,0.0,0.0,-24.0,3.0,3.0,1.0]},{"name":"window_centered_medium_01_43","mesh":11,"matrix":[0.0,0.0,-1.0,0.0,0.0,1.0,0.0,0.0,1.0,0.0,0.0,0.0,-24.0,3.0,3.0,1.0]},{"name":"cornice03_standard_standard_01_44","mesh":12,"matrix":[0.0,0.0,-1.0,0.0,0.0,1.0,0.0,0.0,1.0,0.0,0.0,0.0,-24.0,3.0,3.0,1.0]},{"name":"wall_window_centered_medium_02_45","mesh":13,"matrix":[0.0,0.0,-1.0,0.0,0.0,1.0,0.0,0.0,1.0,0.0,0.0,0.0,-24.0,6.0,3.0,1.0]},{"name":"window_centered_medium_02_46","mesh":14,"matrix":[0.0,0.0,-1.0,0.0,0.0,1.0,0.0,0.0,1.0,0.0,0.0,0.0,-24.0,6.0,3.0,1.0]},{"name":"cornice03_standard_standard_01_47","mesh":12,"matrix":[0.0,0.0,-1.0,0.0,0.0,1.0,0.0,0.0,1.0,0.0,0.0,0.0,-24.0,6.0,3.0,1.0]},{"name":"cornice01_standard_standard_01_48","mesh":15,"matrix":[0.0,0.0,-1.0,0.0,0.0,1.0,0.0,0.0,1.0,0.0,0.0,0.0,-24.0,8.85,3.0,1.0]},{"name":"crown_standard_standard_01_49","mesh":16,"matrix":[0.0,0.0,-1.0,0.0,0.0,1.0,0.0,0.0,1.0,0.0,0.0,0.0,-24.0,9.0,3.0,1.0]},{"name":"wall_window_centered_medium_01_50","mesh":10,"matrix":[0.0,0.0,-1.0,0.0,0.0,1.0,0.0,0.0,1.0,0.0,0.0,0.0,-24.0,3.0,0.0,1.0]},{"name":"window_centered_medium_01_51","mesh":11,"matrix":[0.0,0.0,-1.0,0.0,0.0,1.0,0.0,0.0,1.0,0.0,0.0,0.0,-24.0,3.0,0.0,1.0]},{"name":"cornice03_standard_standard_01_52","mesh":12,"matrix":[0.0,0.0,-1.0,0.0,0.0,1.0,0.0,0.0,1.0,0.0,0.0,0.0,-24.0,3.0,0.0,1.0]},{"name":"wall_window_centered_medium_02_53","mesh":13,"matrix":[0.0,0.0,-1.0,0.0,0.0,1.0,0.0,0.0,1.0,0.0,0.0,0.0,-24.0,6.0,0.0,1.0]},{"name":"window_centered_medium_02_54","mesh":14,"matrix":[0.0,0.0,-1.0,0.0,0.0,1.0,0.0,0.0,1.0,0.0,0.0,0.0,-24.0,6.0,0.0,1.0]},{"name":"cornice03_standard_standard_01_55","mesh":12,"matrix":[0.0,0.0,-1.0,0.0,0.0,1.0,0.0,0.0,1.0,0.0,0.0,0.0,-24.0,6.0,0.0,1.0]},{"name":"cornice01_standard_standard_01_56","mesh":15,"matrix":[0.0,0.0,-1.0,0.0,0.0,1.0,0.0,0.0,1.0,0.0,0.0,0.0,-24.0,8.85,0.0,1.0]},{"name":"crown_standard_standard_01_57","mesh":16,"matrix":[0.0,0.0,-1.0,0.0,0.0,1.0,0.0,0.0,1.0,0.0,0.0,0.0,-24.0,9.0,0.0,1.0]},{"name":"wall_window_centered_large_01_58","mesh":17,"matrix":[0.0,0.0,-1.0,0.0,0.0,1.0,0.0,0.0,1.0,0.0,0.0,0.0,-24.0,3.0,-3.0,1.0]},{"name":"window_centered_large_01_59","mesh":18,"matrix":[0.0,0.0,-1.0,0.0,0.0,1.0,0.0,0.0,1.0,0.0,0.0,0.0,-24.0,3.0,-3.0,1.0]},{"name":"cornice03_standard_standard_01_60","mesh":12,"matrix":[0.0,0.0,-1.0,0.0,0.0,1.0,0.0,0.0,1.0,0.0,0.0,0.0,-24.0,3.0,-3.0,1.0]},{"name":"wall_window_centered_large_02_61","mesh":19,"matrix":[0.0,0.0,-1.0,0.0,0.0,1.0,0.0,0.0,1.0,0.0,0.0,0.0,-24.0,6.0,-3.0,1.0]},{"name":"window_centered_large_02_62","mesh":20,"matrix":[0.0,0.0,-1.0,0.0,0.0,1.0,0.0,0.0,1.0,0.0,0.0,0.0,-24.0,6.0,-3.0,1.0]},{"name":"cornice03_standard_standard_01_63","mesh":12,"matrix":[0.0,0.0,-1.0,0.0,0.0,1.0,0.0,0.0,1.0,0.0,0.0,0.0,-24.0,6.0,-3.0,1.0]},{"name":"cornice01_standard_standard_01_64","mesh":15,"matrix":[0.0,0.0,-1.0,0.0,0.0,1.0,0.0,0.0,1.0,0.0,0.0,0.0,-24.0,8.85,-3.0,1.0]},{"name":"crown_standard_standard_01_65","mesh":16,"matrix":[0.0,0.0,-1.0,0.0,0.0,1.0,0.0,0.0,1.0,0.0,0.0,0.0,-24.0,9.0,-3.0,1.0]},{"name":"wall_window_centered_small_01_66","mesh":25,"matrix":[0.0,0.0,-1.0,0.0,0.0,1.0,0.0,0.0,1.0,0.0,0.0,0.0,-24.0,3.0,-6.0,1.0]},{"name":"window_centered_small_01_67","mesh":26,"matrix":[0.0,0.0,-1.0,0.0,0.0,1.0,0.0,0.0,1.0,0.0,0.0,0.0,-24.0,3.0,-6.0,1.0]},{"name":"cornice03_standard_standard_01_68","mesh":12,"matrix":[0.0,0.0,-1.0,0.0,0.0,1.0,0.0,0.0,1.0,0.0,0.0,0.0,-24.0,3.0,-6.0,1.0]},{"name":"wall_window_centered_small_02_69","mesh":27,"matrix":[0.0,0.0,-1.0,0.0,0.0,1.0,0.0,0.0,1.0,0.0,0.0,0.0,-24.0,6.0,-6.0,1.0]},{"name":"window_centered_small_02_70","mesh":28,"matrix":[0.0,0.0,-1.0,0.0,0.0,1.0,0.0,0.0,1.0,0.0,0.0,0.0,-24.0,6.0,-6.0,1.0]},{"name":"cornice03_standard_standard_01_71","mesh":12,"matrix":[0.0,0.0,-1.0,0.0,0.0,1.0,0.0,0.0,1.0,0.0,0.0,0.0,-24.0,6.0,-6.0,1.0]},{"name":"cornice01_standard_standard_01_72","mesh":15,"matrix":[0.0,0.0,-1.0,0.0,0.0,1.0,0.0,0.0,1.0,0.0,0.0,0.0,-24.0,8.85,-6.0,1.0]},{"name":"crown_standard_standard_01_73","mesh":16,"matrix":[0.0,0.0,-1.0,0.0,0.0,1.0,0.0,0.0,1.0,0.0,0.0,0.0,-24.0,9.0,-6.0,1.0]},{"name":"wall_window_centered_double_01_74","mesh":21,"matrix":[0.0,0.0,-1.0,0.0,0.0,1.0,0.0,0.0,1.0,0.0,0.0,0.0,-24.0,3.0,-9.0,1.0]},{"name":"window_centered_double_01_75","mesh":22,"matrix":[0.0,0.0,-1.0,0.0,0.0,1.0,0.0,0.0,1.0,0.0,0.0,0.0,-24.0,3.0,-9.0,1.0]},{"name":"cornice03_standard_standard_01_76","mesh":12,"matrix":[0.0,0.0,-1.0,0.0,0.0,1.0,0.0,0.0,1.0,0.0,0.0,0.0,-24.0,3.0,-9.0,1.0]},{"name":"wall_window_centered_double_02_77","mesh":23,"matrix":[0.0,0.0,-1.0,0.0,0.0,1.0,0.0,0.0,1.0,0.0,0.0,0.0,-24.0,6.0,-9.0,1.0]},{"name":"window_centered_double_02_78","mesh":24,"matrix":[0.0,0.0,-1.0,0.0,0.0,1.0,0.0,0.0,1.0,0.0,0.0,0.0,-24.0,6.0,-9.0,1.0]},{"name":"cornice03_standard_standard_01_79","mesh":12,"matrix":[0.0,0.0,-1.0,0.0,0.0,1.0,0.0,0.0,1.0,0.0,0.0,0.0,-24.0,6.0,-9.0,1.0]},{"name":"cornice01_standard_standard_01_80","mesh":15,"matrix":[0.0,0.0,-1.0,0.0,0.0,1.0,0.0,0.0,1.0,0.0,0.0,0.0,-24.0,8.85,-9.0,1.0]},{"name":"crown_standard_standard_01_81","mesh":16,"matrix":[0.0,0.0,-1.0,0.0,0.0,1.0,0.0,0.0,1.0,0.0,0.0,0.0,-24.0,9.0,-9.0,1.0]},{"name":"wall_window_centered_large_01_82","mesh":17,"matrix":[0.0,0.0,-1.0,0.0,0.0,1.0,0.0,0.0,1.0,0.0,0.0,0.0,-24.0,3.0,-12.0,1.0]},{"name":"window_centered_large_01_83","mesh":18,"matrix":[0.0,0.0,-1.0,0.0,0.0,1.0,0.0,0.0,1.0,0.0,0.0,0.0,-24.0,3.0,-12.0,1.0]},{"name":"cornice03_standard_standard_01_84","mesh":12,"matrix":[0.0,0.0,-1.0,0.0,0.0,1.0,0.0,0.0,1.0,0.0,0.0,0.0,-24.0,3.0,-12.0,1.0]},{"name":"wall_window_centered_large_02_85","mesh":19,"matrix":[0.0,0.0,-1.0,0.0,0.0,1.0,0.0,0.0,1.0,0.0,0.0,0.0,-24.0,6.0,-12.0,1.0]},{"name":"window_centered_large_02_86","mesh":20,"matrix":[0.0,0.0,-1.0,0.0,0.0,1.0,0.0,0.0,1.0,0.0,0.0,0.0,-24.0,6.0,-12.0,1.0]},{"name":"cornice03_standard_standard_01_87","mesh":12,"matrix":[0.0,0.0,-1.0,0.0,0.0,1.0,0.0,0.0,1.0,0.0,0.0,0.0,-24.0,6.0,-12.0,1.0]},{"name":"cornice01_standard_standard_01_88","mesh":15,"matrix":[0.0,0.0,-1.0,0.0,0.0,1.0,0.0,0.0,1.0,0.0,0.0,0.0,-24.0,8.85,-12.0,1.0]},{"name":"crown_standard_standard_01_89","mesh":16,"matrix":[0.0,0.0,-1.0,0.0,0.0,1.0,0.0,0.0,1.0,0.0,0.0,0.0,-24.0,9.0,-12.0,1.0]},{"name":"wall_window_centered_medium_01_90","mesh":10,"matrix":[0.0,0.0,-1.0,0.0,0.0,1.0,0.0,0.0,1.0,0.0,0.0,0.0,-24.0,3.0,-15.0,1.0]},{"name":"window_centered_medium_01_91","mesh":11,"matrix":[0.0,0.0,-1.0,0.0,0.0,1.0,0.0,0.0,1.0,0.0,0.0,0.0,-24.0,3.0,-15.0,1.0]},{"name":"cornice03_standard_standard_01_92","mesh":12,"matrix":[0.0,0.0,-1.0,0.0,0.0,1.0,0.0,0.0,1.0,0.0,0.0,0.0,-24.0,3.0,-15.0,1.0]},{"name":"wall_window_centered_medium_02_93","mesh":13,"matrix":[0.0,0.0,-1.0,0.0,0.0,1.0,0.0,0.0,1.0,0.0,0.0,0.0,-24.0,6.0,-15.0,1.0]},{"name":"window_centered_medium_02_94","mesh":14,"matrix":[0.0,0.0,-1.0,0.0,0.0,1.0,0.0,0.0,1.0,0.0,0.0,0.0,-24.0,6.0,-15.0,1.0]},{"name":"cornice03_standard_standard_01_95","mesh":12,"matrix":[0.0,0.0,-1.0,0.0,0.0,1.0,0.0,0.0,1.0,0.0,0.0,0.0,-24.0,6.0,-15.0,1.0]},{"name":"cornice01_standard_standard_01_96","mesh":15,"matrix":[0.0,0.0,-1.0,0.0,0.0,1.0,0.0,0.0,1.0,0.0,0.0,0.0,-24.0,8.85,-15.0,1.0]},{"name":"crown_standard_standard_01_97","mesh":16,"matrix":[0.0,0.0,-1.0,0.0,0.0,1.0,0.0,0.0,1.0,0.0,0.0,0.0,-24.0,9.0,-15.0,1.0]},{"name":"crown_end_01_98","mesh":29,"matrix":[0.0,0.0,-1.0,0.0,0.0,1.0,0.0,0.0,1.0,0.0,0.0,0.0,-24.0,9.0,15.0,1.0]},{"name":"crown_end_02_99","mesh":30,"matrix":[0.0,0.0,-1.0,0.0,0.0,1.0,0.0,0.0,1.0,0.0,0.0,0.0,-24.0,9.0,-15.0,1.0]},{"name":"wall_pier_standard_01_100","mesh":31,"matrix":[0.0,0.0,-1.0,0.0,0.0,1.0,0.0,0.0,1.0,0.0,0.0,0.0,-24.0,0.0,15.0,1.0]},{"name":"wall_pier_standard_01_101","mesh":31,"matrix":[0.0,0.0,-1.0,0.0,0.0,1.0,0.0,0.0,1.0,0.0,0.0,0.0,-24.0,3.0,15.0,1.0]},{"name":"wall_pier_standard_01_102","mesh":31,"matrix":[0.0,0.0,-1.0,0.0,0.0,1.0,0.0,0.0,1.0,0.0,0.0,0.0,-24.0,6.0,15.0,1.0]},{"name":"wall_pier_standard_01_103","mesh":31,"matrix":[0.0,0.0,-1.0,0.0,0.0,1.0,0.0,0.0,1.0,0.0,0.0,0.0,-24.0,0.0,-15.0,1.0]},{"name":"wall_pier_standard_01_104","mesh":31,"matrix":[0.0,0.0,-1.0,0.0,0.0,1.0,0.0,0.0,1.0,0.0,0.0,0.0,-24.0,3.0,-15.0,1.0]},{"name":"wall_pier_standard_01_105","mesh":31,"matrix":[0.0,0.0,-1.0,0.0,0.0,1.0,0.0,0.0,1.0,0.0,0.0,0.0,-24.0,6.0,-15.0,1.0]},{"name":"rollershutter_door_106","mesh":32,"matrix":[0.0,0.0,-1.16,0.0,0.0,0.92,0.0,0.0,1.0,0.0,0.0,0.0,-24.02,0.0,-13.5,1.0]}],"meshes":[{"name":"Cube.023","primitives":[{"attributes":{"POSITION":0,"NORMAL":1,"TEXCOORD_0":2},"indices":3,"material":0}]},{"name":"Cube.596","primitives":[{"attributes":{"POSITION":4,"NORMAL":5,"TEXCOORD_0":6},"indices":7,"material":1}]},{"name":"Cube.040","primitives":[{"attributes":{"POSITION":8,"NORMAL":9,"TEXCOORD_0":10},"indices":11,"material":0}]},{"name":"Cube.539","primitives":[{"attributes":{"POSITION":12,"NORMAL":13,"TEXCOORD_0":14},"indices":15,"material":2},{"attributes":{"POSITION":16,"NORMAL":17,"TEXCOORD_0":18},"indices":19,"material":3}]},{"name":"Plane.003","primitives":[{"attributes":{"POSITION":20,"NORMAL":21,"TEXCOORD_0":22},"indices":23,"material":0}]},{"name":"Cube.143","primitives":[{"attributes":{"POSITION":24,"NORMAL":25,"TEXCOORD_0":26},"indices":27,"material":3},{"attributes":{"POSITION":28,"NORMAL":29,"TEXCOORD_0":30},"indices":31,"material":4},{"attributes":{"POSITION":32,"NORMAL":33,"TEXCOORD_0":34},"indices":35,"material":2}]},{"name":"Plane.126","primitives":[{"attributes":{"POSITION":36,"NORMAL":37,"TEXCOORD_0":38},"indices":39,"material":0}]},{"name":"Plane.093","primitives":[{"attributes":{"POSITION":40,"NORMAL":41,"TEXCOORD_0":42},"indices":43,"material":4},{"attributes":{"POSITION":44,"NORMAL":45,"TEXCOORD_0":46},"indices":15,"material":2},{"attributes":{"POSITION":47,"NORMAL":48,"TEXCOORD_0":49},"indices":50,"material":3}]},{"name":"Cube.018","primitives":[{"attributes":{"POSITION":51,"NORMAL":52,"TEXCOORD_0":53},"indices":54,"material":0}]},{"name":"Cube.803","primitives":[{"attributes":{"POSITION":55,"NORMAL":56,"TEXCOORD_0":57},"indices":58,"material":3},{"attributes":{"POSITION":59,"NORMAL":60,"TEXCOORD_0":61},"indices":35,"material":2}]},{"name":"Cube.443","primitives":[{"attributes":{"POSITION":62,"NORMAL":63,"TEXCOORD_0":64},"indices":65,"material":0}]},{"name":"Cube.741","primitives":[{"attributes":{"POSITION":66,"NORMAL":67,"TEXCOORD_0":68},"indices":69,"material":3},{"attributes":{"POSITION":70,"NORMAL":71,"TEXCOORD_0":72},"indices":73,"material":5}]},{"name":"Cube.591","primitives":[{"attributes":{"POSITION":74,"NORMAL":75,"TEXCOORD_0":76},"indices":77,"material":3}]},{"name":"Cube.445","primitives":[{"attributes":{"POSITION":78,"NORMAL":79,"TEXCOORD_0":80},"indices":81,"material":0}]},{"name":"Cube.243","primitives":[{"attributes":{"POSITION":82,"NORMAL":83,"TEXCOORD_0":84},"indices":85,"material":3},{"attributes":{"POSITION":86,"NORMAL":87,"TEXCOORD_0":88},"indices":89,"material":5}]},{"name":"Cube.597","primitives":[{"attributes":{"POSITION":90,"NORMAL":91,"TEXCOORD_0":92},"indices":93,"material":1}]},{"name":"Cube.599","primitives":[{"attributes":{"POSITION":94,"NORMAL":95,"TEXCOORD_0":96},"indices":97,"material":1}]},{"name":"Cube.442","primitives":[{"attributes":{"POSITION":98,"NORMAL":99,"TEXCOORD_0":100},"indices":101,"material":0}]},{"name":"Cube.745","primitives":[{"attributes":{"POSITION":102,"NORMAL":103,"TEXCOORD_0":104},"indices":105,"material":3},{"attributes":{"POSITION":106,"NORMAL":107,"TEXCOORD_0":108},"indices":109,"material":5}]},{"name":"Cube.444","primitives":[{"attributes":{"POSITION":110,"NORMAL":111,"TEXCOORD_0":112},"indices":113,"material":0}]},{"name":"Cube.464","primitives":[{"attributes":{"POSITION":114,"NORMAL":115,"TEXCOORD_0":116},"indices":117,"material":3},{"attributes":{"POSITION":118,"NORMAL":119,"TEXCOORD_0":120},"indices":121,"material":5}]},{"name":"Cube.216","primitives":[{"attributes":{"POSITION":122,"NORMAL":123,"TEXCOORD_0":124},"indices":125,"material":0}]},{"name":"Cube.221","primitives":[{"attributes":{"POSITION":126,"NORMAL":127,"TEXCOORD_0":128},"indices":129,"material":3},{"attributes":{"POSITION":130,"NORMAL":131,"TEXCOORD_0":132},"indices":133,"material":5}]},{"name":"Cube.215","primitives":[{"attributes":{"POSITION":134,"NORMAL":135,"TEXCOORD_0":136},"indices":137,"material":0}]},{"name":"Cube.222","primitives":[{"attributes":{"POSITION":138,"NORMAL":139,"TEXCOORD_0":140},"indices":141,"material":3},{"attributes":{"POSITION":142,"NORMAL":143,"TEXCOORD_0":144},"indices":145,"material":5}]},{"name":"Cube.352","primitives":[{"attributes":{"POSITION":146,"NORMAL":147,"TEXCOORD_0":148},"indices":149,"material":0}]},{"name":"Cube.726","primitives":[{"attributes":{"POSITION":150,"NORMAL":151,"TEXCOORD_0":152},"indices":153,"material":3},{"attributes":{"POSITION":154,"NORMAL":155,"TEXCOORD_0":156},"indices":157,"material":5}]},{"name":"Cube.116","primitives":[{"attributes":{"POSITION":158,"NORMAL":159,"TEXCOORD_0":160},"indices":161,"material":0}]},{"name":"Cube.750","primitives":[{"attributes":{"POSITION":162,"NORMAL":163,"TEXCOORD_0":164},"indices":165,"material":3},{"attributes":{"POSITION":166,"NORMAL":167,"TEXCOORD_0":168},"indices":169,"material":5}]},{"name":"Cube.079","primitives":[{"attributes":{"POSITION":170,"NORMAL":171,"TEXCOORD_0":172},"indices":173,"material":1}]},{"name":"Cube.080","primitives":[{"attributes":{"POSITION":174,"NORMAL":175,"TEXCOORD_0":176},"indices":177,"material":1}]},{"name":"Plane.172","primitives":[{"attributes":{"POSITION":178,"NORMAL":179,"TEXCOORD_0":180},"indices":181,"material":0}]},{"name":"Plane.010","primitives":[{"attributes":{"POSITION":182,"NORMAL":183,"TEXCOORD_0":184},"indices":185,"material":6}]}],"accessors":[{"bufferView":0,"componentType":5126,"count":625,"max":[0,3,0],"min":[-3,0,0],"type":"VEC3"},{"bufferView":1,"componentType":5126,"count":625,"type":"VEC3"},{"bufferView":2,"componentType":5126,"count":625,"type":"VEC2"},{"bufferView":3,"componentType":5123,"count":3456,"type":"SCALAR"},{"bufferView":4,"componentType":5126,"count":10,"max":[0,0.75,0.20000000298023224],"min":[-3,0,0],"type":"VEC3"},{"bufferView":5,"componentType":5126,"count":10,"type":"VEC3"},{"bufferView":6,"componentType":5126,"count":10,"type":"VEC2"},{"bufferView":7,"componentType":5123,"count":24,"type":"SCALAR"},{"bufferView":8,"componentType":5126,"count":438,"max":[0,3,0],"min":[-3,0,0],"type":"VEC3"},{"bufferView":9,"componentType":5126,"count":438,"type":"VEC3"},{"bufferView":10,"componentType":5126,"count":438,"type":"VEC2"},{"bufferView":11,"componentType":5123,"count":2232,"type":"SCALAR"},{"bufferView":12,"componentType":5126,"count":584,"max":[-0.6999969482421875,2.200000286102295,0.029999971389770508],"min":[-2.2999987602233887,0,-0.205000102519989],"type":"VEC3"},{"bufferView":13,"componentType":5126,"count":584,"type":"VEC3"},{"bufferView":14,"componentType":5126,"count":584,"type":"VEC2"},{"bufferView":15,"componentType":5123,"count":1626,"type":"SCALAR"},{"bufferView":16,"componentType":5126,"count":194,"max":[-0.5999998450279236,2.3299994468688965,0.030000001192092896],"min":[-2.399996280670166,2.2053062915802,-0.14624957740306854],"type":"VEC3"},{"bufferView":17,"componentType":5126,"count":194,"type":"VEC3"},{"bufferView":18,"componentType":5126,"count":194,"type":"VEC2"},{"bufferView":19,"componentType":5123,"count":378,"type":"SCALAR"},{"bufferView":20,"componentType":5126,"count":1852,"max":[0,3.000000238418579,6.020384546445712e-08],"min":[-6.000000953674316,-1.6763806343078613e-07,-0.2600001096725464],"type":"VEC3"},{"bufferView":21,"componentType":5126,"count":1852,"type":"VEC3"},{"bufferView":22,"componentType":5126,"count":1852,"type":"VEC2"},{"bufferView":23,"componentType":5123,"count":7032,"type":"SCALAR"},{"bufferView":24,"componentType":5126,"count":582,"max":[-0.33999794721603394,2.739999532699585,0.030000094324350357],"min":[-5.659994602203369,2.2053062915802,-0.3462494909763336],"type":"VEC3"},{"bufferView":25,"componentType":5126,"count":582,"type":"VEC3"},{"bufferView":26,"componentType":5126,"count":582,"type":"VEC2"},{"bufferView":27,"componentType":5123,"count":1134,"type":"SCALAR"},{"bufferView":28,"componentType":5126,"count":536,"max":[-0.4499943256378174,2.6399993896484375,-8.583148058960433e-08],"min":[-5.550002098083496,7.078051567077637e-08,-0.5000008344650269],"type":"VEC3"},{"bufferView":29,"componentType":5126,"count":536,"type":"VEC3"},{"bufferView":30,"componentType":5126,"count":536,"type":"VEC2"},{"bufferView":31,"componentType":5123,"count":1062,"type":"SCALAR"},{"bufferView":32,"componentType":5126,"count":695,"max":[-4.469995021820068,2.200000286102295,-0.17166662216186523],"min":[-5.529996871948242,7.078051567077637e-08,-0.40500006079673767],"type":"VEC3"},{"bufferView":33,"componentType":5126,"count":695,"type":"VEC3"},{"bufferView":34,"componentType":5126,"count":695,"type":"VEC2"},{"bufferView":35,"componentType":5123,"count":1746,"type":"SCALAR"},{"bufferView":36,"componentType":5126,"count":1091,"max":[2.3841856489070778e-07,3.000000238418579,-3.2778604719396753e-08],"min":[-3.0000009536743164,-1.30385160446167e-07,-0.26000019907951355],"type":"VEC3"},{"bufferView":37,"componentType":5126,"count":1091,"type":"VEC3"},{"bufferView":38,"componentType":5126,"count":1091,"type":"VEC2"},{"bufferView":39,"componentType":5123,"count":4440,"type":"SCALAR"},{"bufferView":40,"componentType":5126,"count":22,"max":[-0.3999953866004944,2.6299993991851807,-1.7881393432617188e-07],"min":[-2.599996328353882,6.780028343200684e-07,-0.5000009536743164],"type":"VEC3"},{"bufferView":41,"componentType":5126,"count":22,"type":"VEC3"},{"bufferView":42,"componentType":5126,"count":22,"type":"VEC2"},{"bufferView":43,"componentType":5123,"count":36,"type":"SCALAR"},{"bufferView":44,"componentType":5126,"count":584,"max":[-0.6999950408935547,2.200000286102295,-0.17000003159046173],"min":[-2.299996852874756,0,-0.40500009059906006],"type":"VEC3"},{"bufferView":45,"componentType":5126,"count":584,"type":"VEC3"},{"bufferView":46,"componentType":5126,"count":584,"type":"VEC2"},{"bufferView":47,"componentType":5126,"count":388,"max":[-0.33999794721603394,2.739999532699585,0.030000001192092896],"min":[-2.659994602203369,2.2053062915802,-0.3462495803833008],"type":"VEC3"},{"bufferView":48,"componentType":5126,"count":388,"type":"VEC3"},{"bufferView":49,"componentType":5126,"count":388,"type":"VEC2"},{"bufferView":50,"componentType":5123,"count":756,"type":"SCALAR"},{"bufferView":51,"componentType":5126,"count":499,"max":[-3.5762786865234375e-07,3,0],"min":[-3.000000476837158,-2.384185791015625e-07,0],"type":"VEC3"},{"bufferView":52,"componentType":5126,"count":499,"type":"VEC3"},{"bufferView":53,"componentType":5126,"count":499,"type":"VEC2"},{"bufferView":54,"componentType":5123,"count":2592,"type":"SCALAR"},{"bufferView":55,"componentType":5126,"count":194,"max":[-0.8700017333030701,2.3299994468688965,0.030000023543834686],"min":[-2.1299984455108643,2.2053062915802,-0.14624956250190735],"type":"VEC3"},{"bufferView":56,"componentType":5126,"count":194,"type":"VEC3"},{"bufferView":57,"componentType":5126,"count":194,"type":"VEC2"},{"bufferView":58,"componentType":5123,"count":378,"type":"SCALAR"},{"bufferView":59,"componentType":5126,"count":695,"max":[-0.9699989557266235,2.200000286102295,0.028333351016044617],"min":[-2.030000686645508,0,-0.20500008761882782],"type":"VEC3"},{"bufferView":60,"componentType":5126,"count":695,"type":"VEC3"},{"bufferView":61,"componentType":5126,"count":695,"type":"VEC2"},{"bufferView":62,"componentType":5126,"count":920,"max":[-4.76837158203125e-07,2.999999523162842,0],"min":[-2.9999918937683105,0,-0.20000000298023224],"type":"VEC3"},{"bufferView":63,"componentType":5126,"count":920,"type":"VEC3"},{"bufferView":64,"componentType":5126,"count":920,"type":"VEC2"},{"bufferView":65,"componentType":5123,"count":3948,"type":"SCALAR"},{"bufferView":66,"componentType":5126,"count":903,"max":[-0.7199941277503967,2.3349990844726562,0.0299999862909317],"min":[-2.2799906730651855,0.590306282043457,-0.18666668236255646],"type":"VEC3"},{"bufferView":67,"componentType":5126,"count":903,"type":"VEC3"},{"bufferView":68,"componentType":5126,"count":903,"type":"VEC2"},{"bufferView":69,"componentType":5123,"count":2058,"type":"SCALAR"},{"bufferView":70,"componentType":5126,"count":96,"max":[-0.8616667985916138,2.179999589920044,-0.16766668856143951],"min":[-2.138335704803467,0.7599989175796509,-0.16766668856143951],"type":"VEC3"},{"bufferView":71,"componentType":5126,"count":96,"type":"VEC3"},{"bufferView":72,"componentType":5126,"count":96,"type":"VEC2"},{"bufferView":73,"componentType":5123,"count":144,"type":"SCALAR"},{"bufferView":74,"componentType":5126,"count":281,"max":[-1.6689300537109375e-06,0.09999999403953552,0.030000001192092896],"min":[-2.9999983310699463,-0.024692704901099205,-0.14624957740306854],"type":"VEC3"},{"bufferView":75,"componentType":5126,"count":281,"type":"VEC3"},{"bufferView":76,"componentType":5126,"count":281,"type":"VEC2"},{"bufferView":77,"componentType":5123,"count":432,"type":"SCALAR"},{"bufferView":78,"componentType":5126,"count":1329,"max":[7.62939453125e-06,2.9999990463256836,0.015000477433204651],"min":[-3,0,-0.23499999940395355],"type":"VEC3"},{"bufferView":79,"componentType":5126,"count":1329,"type":"VEC3"},{"bufferView":80,"componentType":5126,"count":1329,"type":"VEC2"},{"bufferView":81,"componentType":5123,"count":4752,"type":"SCALAR"},{"bufferView":82,"componentType":5126,"count":807,"max":[-0.7999932765960693,2.099891185760498,0.029999926686286926],"min":[-2.1999876499176025,0.47530651092529297,-0.1866973489522934],"type":"VEC3"},{"bufferView":83,"componentType":5126,"count":807,"type":"VEC3"},{"bufferView":84,"componentType":5126,"count":807,"type":"VEC2"},{"bufferView":85,"componentType":5123,"count":1884,"type":"SCALAR"},{"bufferView":86,"componentType":5126,"count":102,"max":[-0.8616667985916138,2.063873767852783,-0.16766668856143951],"min":[-2.138335704803467,0.644999623298645,-0.16766668856143951],"type":"VEC3"},{"bufferView":87,"componentType":5126,"count":102,"type":"VEC3"},{"bufferView":88,"componentType":5126,"count":102,"type":"VEC2"},{"bufferView":89,"componentType":5123,"count":162,"type":"SCALAR"},{"bufferView":90,"componentType":5126,"count":45,"max":[3.5762786865234375e-06,0.15224774181842804,0.06778641045093536],"min":[-3.0000035762786865,0.00026220083236694336,-0.10041344165802002],"type":"VEC3"},{"bufferView":91,"componentType":5126,"count":45,"type":"VEC3"},{"bufferView":92,"componentType":5126,"count":45,"type":"VEC2"},{"bufferView":93,"componentType":5123,"count":144,"type":"SCALAR"},{"bufferView":94,"componentType":5126,"count":62,"max":[0,0.3199998140335083,0.12999999523162842],"min":[-3,-3.8743019104003906e-07,0],"type":"VEC3"},{"bufferView":95,"componentType":5126,"count":62,"type":"VEC3"},{"bufferView":96,"componentType":5126,"count":62,"type":"VEC2"},{"bufferView":97,"componentType":5123,"count":96,"type":"SCALAR"},{"bufferView":98,"componentType":5126,"count":982,"max":[0,2.999999523162842,0],"min":[-3.0000038146972656,0,-0.20000000298023224],"type":"VEC3"},{"bufferView":99,"componentType":5126,"count":982,"type":"VEC3"},{"bufferView":100,"componentType":5126,"count":982,"type":"VEC2"},{"bufferView":101,"componentType":5123,"count":3768,"type":"SCALAR"},{"bufferView":102,"componentType":5126,"count":1203,"max":[-0.3900017738342285,2.3349990844726562,0.0299999862909317],"min":[-2.6099982261657715,0.5903058052062988,-0.18666668236255646],"type":"VEC3"},{"bufferView":103,"componentType":5126,"count":1203,"type":"VEC3"},{"bufferView":104,"componentType":5126,"count":1203,"type":"VEC2"},{"bufferView":105,"componentType":5123,"count":2826,"type":"SCALAR"},{"bufferView":106,"componentType":5126,"count":152,"max":[-0.5350002646446228,2.1800005435943604,-0.16766668856143951],"min":[-2.46500301361084,0.7599998712539673,-0.16766668856143951],"type":"VEC3"},{"bufferView":107,"componentType":5126,"count":152,"type":"VEC3"},{"bufferView":108,"componentType":5126,"count":152,"type":"VEC2"},{"bufferView":109,"componentType":5123,"count":240,"type":"SCALAR"},{"bufferView":110,"componentType":5126,"count":1361,"max":[0,2.9999990463256836,0.015000000596046448],"min":[-3.0000038146972656,0,-0.23499999940395355],"type":"VEC3"},{"bufferView":111,"componentType":5126,"count":1361,"type":"VEC3"},{"bufferView":112,"componentType":5126,"count":1361,"type":"VEC2"},{"bufferView":113,"componentType":5123,"count":4620,"type":"SCALAR"},{"bufferView":114,"componentType":5126,"count":1096,"max":[-0.45000243186950684,2.1000053882598877,0.0299999862909317],"min":[-2.549997568130493,0.47530651092529297,-0.18666671216487885],"type":"VEC3"},{"bufferView":115,"componentType":5126,"count":1096,"type":"VEC3"},{"bufferView":116,"componentType":5126,"count":1096,"type":"VEC2"},{"bufferView":117,"componentType":5123,"count":2586,"type":"SCALAR"},{"bufferView":118,"componentType":5126,"count":157,"max":[-0.5350002646446228,2.0649876594543457,-0.15666668117046356],"min":[-2.46500301361084,0.6450077295303345,-0.15666668117046356],"type":"VEC3"},{"bufferView":119,"componentType":5126,"count":157,"type":"VEC3"},{"bufferView":120,"componentType":5126,"count":157,"type":"VEC2"},{"bufferView":121,"componentType":5123,"count":255,"type":"SCALAR"},{"bufferView":122,"componentType":5126,"count":1193,"max":[-2.384185791015625e-07,2.999999523162842,0],"min":[-3,0,-0.20000000298023224],"type":"VEC3"},{"bufferView":123,"componentType":5126,"count":1193,"type":"VEC3"},{"bufferView":124,"componentType":5126,"count":1193,"type":"VEC2"},{"bufferView":125,"componentType":5123,"count":4680,"type":"SCALAR"},{"bufferView":126,"componentType":5126,"count":1316,"max":[-0.30000174045562744,2.3349990844726562,0.03000009059906006],"min":[-2.709998369216919,0.590306282043457,-0.18666668236255646],"type":"VEC3"},{"bufferView":127,"componentType":5126,"count":1316,"type":"VEC3"},{"bufferView":128,"componentType":5126,"count":1316,"type":"VEC2"},{"bufferView":129,"componentType":5123,"count":2952,"type":"SCALAR"},{"bufferView":130,"componentType":5126,"count":112,"max":[-0.4383279085159302,2.180000066757202,-0.16766668856143951],"min":[-2.561666488647461,0.7599993944168091,-0.16766668856143951],"type":"VEC3"},{"bufferView":131,"componentType":5126,"count":112,"type":"VEC3"},{"bufferView":132,"componentType":5126,"count":112,"type":"VEC2"},{"bufferView":133,"componentType":5123,"count":192,"type":"SCALAR"},{"bufferView":134,"componentType":5126,"count":1117,"max":[0,3,0],"min":[-3,4.76837158203125e-07,-0.20000000298023224],"type":"VEC3"},{"bufferView":135,"componentType":5126,"count":1117,"type":"VEC3"},{"bufferView":136,"componentType":5126,"count":1117,"type":"VEC2"},{"bufferView":137,"componentType":5123,"count":4608,"type":"SCALAR"},{"bufferView":138,"componentType":5126,"count":1164,"max":[-0.30000174045562744,2.3349995613098145,0.03000009059906006],"min":[-2.709998369216919,0.9578056335449219,-0.18666668236255646],"type":"VEC3"},{"bufferView":139,"componentType":5126,"count":1164,"type":"VEC3"},{"bufferView":140,"componentType":5126,"count":1164,"type":"VEC2"},{"bufferView":141,"componentType":5123,"count":2568,"type":"SCALAR"},{"bufferView":142,"componentType":5126,"count":84,"max":[-0.4383279085159302,2.189999580383301,-0.16766668856143951],"min":[-2.561666488647461,1.1274992227554321,-0.16766668856143951],"type":"VEC3"},{"bufferView":143,"componentType":5126,"count":84,"type":"VEC3"},{"bufferView":144,"componentType":5126,"count":84,"type":"VEC2"},{"bufferView":145,"componentType":5123,"count":144,"type":"SCALAR"},{"bufferView":146,"componentType":5126,"count":918,"max":[0,2.999999523162842,0],"min":[-3,0,-0.20000000298023224],"type":"VEC3"},{"bufferView":147,"componentType":5126,"count":918,"type":"VEC3"},{"bufferView":148,"componentType":5126,"count":918,"type":"VEC2"},{"bufferView":149,"componentType":5123,"count":4068,"type":"SCALAR"},{"bufferView":150,"componentType":5126,"count":658,"max":[-1.0500017404556274,2.3349990844726562,0.03000009059906006],"min":[-1.959998369216919,0.590306282043457,-0.18666668236255646],"type":"VEC3"},{"bufferView":151,"componentType":5126,"count":658,"type":"VEC3"},{"bufferView":152,"componentType":5126,"count":658,"type":"VEC2"},{"bufferView":153,"componentType":5123,"count":1476,"type":"SCALAR"},{"bufferView":154,"componentType":5126,"count":56,"max":[-1.1883279085159302,2.180000066757202,-0.16766668856143951],"min":[-1.8116663694381714,0.7599993944168091,-0.16766668856143951],"type":"VEC3"},{"bufferView":155,"componentType":5126,"count":56,"type":"VEC3"},{"bufferView":156,"componentType":5126,"count":56,"type":"VEC2"},{"bufferView":157,"componentType":5123,"count":96,"type":"SCALAR"},{"bufferView":158,"componentType":5126,"count":881,"max":[0,3,0],"min":[-3,4.76837158203125e-07,-0.20000000298023224],"type":"VEC3"},{"bufferView":159,"componentType":5126,"count":881,"type":"VEC3"},{"bufferView":160,"componentType":5126,"count":881,"type":"VEC2"},{"bufferView":161,"componentType":5123,"count":4032,"type":"SCALAR"},{"bufferView":162,"componentType":5126,"count":582,"max":[-1.0500017404556274,2.3349995613098145,0.03000009059906006],"min":[-1.959998369216919,0.9578056335449219,-0.18666668236255646],"type":"VEC3"},{"bufferView":163,"componentType":5126,"count":582,"type":"VEC3"},{"bufferView":164,"componentType":5126,"count":582,"type":"VEC2"},{"bufferView":165,"componentType":5123,"count":1284,"type":"SCALAR"},{"bufferView":166,"componentType":5126,"count":42,"max":[-1.1883279085159302,2.189999580383301,-0.16766668856143951],"min":[-1.8116663694381714,1.1274992227554321,-0.16766668856143951],"type":"VEC3"},{"bufferView":167,"componentType":5126,"count":42,"type":"VEC3"},{"bufferView":168,"componentType":5126,"count":42,"type":"VEC2"},{"bufferView":169,"componentType":5123,"count":72,"type":"SCALAR"},{"bufferView":170,"componentType":5126,"count":222,"max":[-2.2351741790771484e-08,0.3200002908706665,0.12999999523162842],"min":[-0.22999998927116394,8.940696716308594e-08,-0.19999998807907104],"type":"VEC3"},{"bufferView":171,"componentType":5126,"count":222,"type":"VEC3"},{"bufferView":172,"componentType":5126,"count":222,"type":"VEC2"},{"bufferView":173,"componentType":5123,"count":480,"type":"SCALAR"},{"bufferView":174,"componentType":5126,"count":222,"max":[0.2300076186656952,0.3199998140335083,0.12999999523162842],"min":[7.651746273040771e-06,-3.8743019104003906e-07,-0.19999998807907104],"type":"VEC3"},{"bufferView":175,"componentType":5126,"count":222,"type":"VEC3"},{"bufferView":176,"componentType":5126,"count":222,"type":"VEC2"},{"bufferView":177,"componentType":5123,"count":480,"type":"SCALAR"},{"bufferView":178,"componentType":5126,"count":443,"max":[0.1500009000301361,3,0.08000011742115021],"min":[-0.15000034868717194,0,0],"type":"VEC3"},{"bufferView":179,"componentType":5126,"count":443,"type":"VEC3"},{"bufferView":180,"componentType":5126,"count":443,"type":"VEC2"},{"bufferView":181,"componentType":5123,"count":1152,"type":"SCALAR"},{"bufferView":182,"componentType":5126,"count":670,"max":[0.5400000214576721,2.3999757766723633,0.29908570647239685],"min":[-0.5400000214576721,2.2873277885082643e-06,-0.0010000001639127731],"type":"VEC3"},{"bufferView":183,"componentType":5126,"count":670,"type":"VEC3"},{"bufferView":184,"componentType":5126,"count":670,"type":"VEC2"},{"bufferView":185,"componentType":5123,"count":1656,"type":"SCALAR"}],"bufferViews":[{"buffer":0,"byteLength":7500,"byteOffset":1995748,"target":34962},{"buffer":0,"byteLength":7500,"byteOffset":2003248,"target":34962},{"buffer":0,"byteLength":5000,"byteOffset":2010748,"target":34962},{"buffer":0,"byteLength":6912,"byteOffset":2015748,"target":34963},{"buffer":0,"byteLength":120,"byteOffset":1790816,"target":34962},{"buffer":0,"byteLength":120,"byteOffset":1790936,"target":34962},{"buffer":0,"byteLength":80,"byteOffset":1791056,"target":34962},{"buffer":0,"byteLength":48,"byteOffset":1791136,"target":34963},{"buffer":0,"byteLength":5256,"byteOffset":2022660,"target":34962},{"buffer":0,"byteLength":5256,"byteOffset":2027916,"target":34962},{"buffer":0,"byteLength":3504,"byteOffset":2033172,"target":34962},{"buffer":0,"byteLength":4464,"byteOffset":2036676,"target":34963},{"buffer":0,"byteLength":7008,"byteOffset":5579224,"target":34962},{"buffer":0,"byteLength":7008,"byteOffset":5586232,"target":34962},{"buffer":0,"byteLength":4672,"byteOffset":5593240,"target":34962},{"buffer":0,"byteLength":3252,"byteOffset":5562044,"target":34963},{"buffer":0,"byteLength":2328,"byteOffset":5597912,"target":34962},{"buffer":0,"byteLength":2328,"byteOffset":5600240,"target":34962},{"buffer":0,"byteLength":1552,"byteOffset":5602568,"target":34962},{"buffer":0,"byteLength":756,"byteOffset":5604120,"target":34963},{"buffer":0,"byteLength":22224,"byteOffset":3945988,"target":34962},{"buffer":0,"byteLength":22224,"byteOffset":3968212,"target":34962},{"buffer":0,"byteLength":14816,"byteOffset":3990436,"target":34962},{"buffer":0,"byteLength":14064,"byteOffset":4005252,"target":34963},{"buffer":0,"byteLength":6984,"byteOffset":5760604,"target":34962},{"buffer":0,"byteLength":6984,"byteOffset":5767588,"target":34962},{"buffer":0,"byteLength":4656,"byteOffset":5774572,"target":34962},{"buffer":0,"byteLength":2268,"byteOffset":5779228,"target":34963},{"buffer":0,"byteLength":6432,"byteOffset":5781496,"target":34962},{"buffer":0,"byteLength":6432,"byteOffset":5787928,"target":34962},{"buffer":0,"byteLength":4288,"byteOffset":5794360,"target":34962},{"buffer":0,"byteLength":2124,"byteOffset":5798648,"target":34963},{"buffer":0,"byteLength":8340,"byteOffset":5800772,"target":34962},{"buffer":0,"byteLength":8340,"byteOffset":5809112,"target":34962},{"buffer":0,"byteLength":5560,"byteOffset":5817452,"target":34962},{"buffer":0,"byteLength":3492,"byteOffset":5641820,"target":34963},{"buffer":0,"byteLength":13092,"byteOffset":2437108,"target":34962},{"buffer":0,"byteLength":13092,"byteOffset":2450200,"target":34962},{"buffer":0,"byteLength":8728,"byteOffset":2463292,"target":34962},{"buffer":0,"byteLength":8880,"byteOffset":2472020,"target":34963},{"buffer":0,"byteLength":264,"byteOffset":5542580,"target":34962},{"buffer":0,"byteLength":264,"byteOffset":5542844,"target":34962},{"buffer":0,"byteLength":176,"byteOffset":5543108,"target":34962},{"buffer":0,"byteLength":72,"byteOffset":5543284,"target":34963},{"buffer":0,"byteLength":7008,"byteOffset":5543356,"target":34962},{"buffer":0,"byteLength":7008,"byteOffset":5550364,"target":34962},{"buffer":0,"byteLength":4672,"byteOffset":5557372,"target":34962},{"buffer":0,"byteLength":4656,"byteOffset":5565296,"target":34962},{"buffer":0,"byteLength":4656,"byteOffset":5569952,"target":34962},{"buffer":0,"byteLength":3104,"byteOffset":5574608,"target":34962},{"buffer":0,"byteLength":1512,"byteOffset":5577712,"target":34963},{"buffer":0,"byteLength":5988,"byteOffset":2415956,"target":34962},{"buffer":0,"byteLength":5988,"byteOffset":2421944,"target":34962},{"buffer":0,"byteLength":3992,"byteOffset":2427932,"target":34962},{"buffer":0,"byteLength":5184,"byteOffset":2431924,"target":34963},{"buffer":0,"byteLength":2328,"byteOffset":5645312,"target":34962},{"buffer":0,"byteLength":2328,"byteOffset":5647640,"target":34962},{"buffer":0,"byteLength":1552,"byteOffset":5649968,"target":34962},{"buffer":0,"byteLength":756,"byteOffset":5651520,"target":34963},{"buffer":0,"byteLength":8340,"byteOffset":5652276,"target":34962},{"buffer":0,"byteLength":8340,"byteOffset":5660616,"target":34962},{"buffer":0,"byteLength":5560,"byteOffset":5668956,"target":34962},{"buffer":0,"byteLength":11040,"byteOffset":2155324,"target":34962},{"buffer":0,"byteLength":11040,"byteOffset":2166364,"target":34962},{"buffer":0,"byteLength":7360,"byteOffset":2177404,"target":34962},{"buffer":0,"byteLength":7896,"byteOffset":2184764,"target":34963},{"buffer":0,"byteLength":10836,"byteOffset":413668,"target":34962},{"buffer":0,"byteLength":10836,"byteOffset":424504,"target":34962},{"buffer":0,"byteLength":7224,"byteOffset":435340,"target":34962},{"buffer":0,"byteLength":4116,"byteOffset":442564,"target":34963},{"buffer":0,"byteLength":1152,"byteOffset":446680,"target":34962},{"buffer":0,"byteLength":1152,"byteOffset":447832,"target":34962},{"buffer":0,"byteLength":768,"byteOffset":448984,"target":34962},{"buffer":0,"byteLength":288,"byteOffset":449752,"target":34963},{"buffer":0,"byteLength":3372,"byteOffset":1724028,"target":34962},{"buffer":0,"byteLength":3372,"byteOffset":1727400,"target":34962},{"buffer":0,"byteLength":2248,"byteOffset":1730772,"target":34962},{"buffer":0,"byteLength":864,"byteOffset":1733020,"target":34963},{"buffer":0,"byteLength":15948,"byteOffset":2245452,"target":34962},{"buffer":0,"byteLength":15948,"byteOffset":2261400,"target":34962},{"buffer":0,"byteLength":10632,"byteOffset":2277348,"target":34962},{"buffer":0,"byteLength":9504,"byteOffset":2287980,"target":34963},{"buffer":0,"byteLength":9684,"byteOffset":90012,"target":34962},{"buffer":0,"byteLength":9684,"byteOffset":99696,"target":34962},{"buffer":0,"byteLength":6456,"byteOffset":109380,"target":34962},{"buffer":0,"byteLength":3768,"byteOffset":115836,"target":34963},{"buffer":0,"byteLength":1224,"byteOffset":119604,"target":34962},{"buffer":0,"byteLength":1224,"byteOffset":120828,"target":34962},{"buffer":0,"byteLength":816,"byteOffset":122052,"target":34962},{"buffer":0,"byteLength":324,"byteOffset":122868,"target":34963},{"buffer":0,"byteLength":540,"byteOffset":1799268,"target":34962},{"buffer":0,"byteLength":540,"byteOffset":1799808,"target":34962},{"buffer":0,"byteLength":360,"byteOffset":1800348,"target":34962},{"buffer":0,"byteLength":288,"byteOffset":1800708,"target":34963},{"buffer":0,"byteLength":744,"byteOffset":1880552,"target":34962},{"buffer":0,"byteLength":744,"byteOffset":1881296,"target":34962},{"buffer":0,"byteLength":496,"byteOffset":1882040,"target":34962},{"buffer":0,"byteLength":192,"byteOffset":1882536,"target":34963},{"buffer":0,"byteLength":11784,"byteOffset":2116364,"target":34962},{"buffer":0,"byteLength":11784,"byteOffset":2128148,"target":34962},{"buffer":0,"byteLength":7856,"byteOffset":2139932,"target":34962},{"buffer":0,"byteLength":7536,"byteOffset":2147788,"target":34963},{"buffer":0,"byteLength":14436,"byteOffset":450040,"target":34962},{"buffer":0,"byteLength":14436,"byteOffset":464476,"target":34962},{"buffer":0,"byteLength":9624,"byteOffset":478912,"target":34962},{"buffer":0,"byteLength":5652,"byteOffset":488536,"target":34963},{"buffer":0,"byteLength":1824,"byteOffset":494188,"target":34962},{"buffer":0,"byteLength":1824,"byteOffset":496012,"target":34962},{"buffer":0,"byteLength":1216,"byteOffset":497836,"target":34962},{"buffer":0,"byteLength":480,"byteOffset":499052,"target":34963},{"buffer":0,"byteLength":16332,"byteOffset":2192660,"target":34962},{"buffer":0,"byteLength":16332,"byteOffset":2208992,"target":34962},{"buffer":0,"byteLength":10888,"byteOffset":2225324,"target":34962},{"buffer":0,"byteLength":9240,"byteOffset":2236212,"target":34963},{"buffer":0,"byteLength":13152,"byteOffset":123192,"target":34962},{"buffer":0,"byteLength":13152,"byteOffset":136344,"target":34962},{"buffer":0,"byteLength":8768,"byteOffset":149496,"target":34962},{"buffer":0,"byteLength":5172,"byteOffset":158264,"target":34963},{"buffer":0,"byteLength":1884,"byteOffset":163436,"target":34962},{"buffer":0,"byteLength":1884,"byteOffset":165320,"target":34962},{"buffer":0,"byteLength":1256,"byteOffset":167204,"target":34962},{"buffer":0,"byteLength":510,"byteOffset":168460,"target":34963},{"buffer":0,"byteLength":14316,"byteOffset":4482276,"target":34962},{"buffer":0,"byteLength":14316,"byteOffset":4496592,"target":34962},{"buffer":0,"byteLength":9544,"byteOffset":4510908,"target":34962},{"buffer":0,"byteLength":9360,"byteOffset":4520452,"target":34963},{"buffer":0,"byteLength":15792,"byteOffset":1405676,"target":34962},{"buffer":0,"byteLength":15792,"byteOffset":1421468,"target":34962},{"buffer":0,"byteLength":10528,"byteOffset":1437260,"target":34962},{"buffer":0,"byteLength":5904,"byteOffset":1447788,"target":34963},{"buffer":0,"byteLength":1344,"byteOffset":1453692,"target":34962},{"buffer":0,"byteLength":1344,"byteOffset":1455036,"target":34962},{"buffer":0,"byteLength":896,"byteOffset":1456380,"target":34962},{"buffer":0,"byteLength":384,"byteOffset":1457276,"target":34963},{"buffer":0,"byteLength":13404,"byteOffset":4437316,"target":34962},{"buffer":0,"byteLength":13404,"byteOffset":4450720,"target":34962},{"buffer":0,"byteLength":8936,"byteOffset":4464124,"target":34962},{"buffer":0,"byteLength":9216,"byteOffset":4473060,"target":34963},{"buffer":0,"byteLength":13968,"byteOffset":1457660,"target":34962},{"buffer":0,"byteLength":13968,"byteOffset":1471628,"target":34962},{"buffer":0,"byteLength":9312,"byteOffset":1485596,"target":34962},{"buffer":0,"byteLength":5136,"byteOffset":1494908,"target":34963},{"buffer":0,"byteLength":1008,"byteOffset":1500044,"target":34962},{"buffer":0,"byteLength":1008,"byteOffset":1501052,"target":34962},{"buffer":0,"byteLength":672,"byteOffset":1502060,"target":34962},{"buffer":0,"byteLength":288,"byteOffset":1502732,"target":34963},{"buffer":0,"byteLength":11016,"byteOffset":2333740,"target":34962},{"buffer":0,"byteLength":11016,"byteOffset":2344756,"target":34962},{"buffer":0,"byteLength":7344,"byteOffset":2355772,"target":34962},{"buffer":0,"byteLength":8136,"byteOffset":2363116,"target":34963},{"buffer":0,"byteLength":7896,"byteOffset":387676,"target":34962},{"buffer":0,"byteLength":7896,"byteOffset":395572,"target":34962},{"buffer":0,"byteLength":5264,"byteOffset":403468,"target":34962},{"buffer":0,"byteLength":2952,"byteOffset":408732,"target":34963},{"buffer":0,"byteLength":672,"byteOffset":411684,"target":34962},{"buffer":0,"byteLength":672,"byteOffset":412356,"target":34962},{"buffer":0,"byteLength":448,"byteOffset":413028,"target":34962},{"buffer":0,"byteLength":192,"byteOffset":413476,"target":34963},{"buffer":0,"byteLength":10572,"byteOffset":2297484,"target":34962},{"buffer":0,"byteLength":10572,"byteOffset":2308056,"target":34962},{"buffer":0,"byteLength":7048,"byteOffset":2318628,"target":34962},{"buffer":0,"byteLength":8064,"byteOffset":2325676,"target":34963},{"buffer":0,"byteLength":6984,"byteOffset":499532,"target":34962},{"buffer":0,"byteLength":6984,"byteOffset":506516,"target":34962},{"buffer":0,"byteLength":4656,"byteOffset":513500,"target":34962},{"buffer":0,"byteLength":2568,"byteOffset":518156,"target":34963},{"buffer":0,"byteLength":504,"byteOffset":520724,"target":34962},{"buffer":0,"byteLength":504,"byteOffset":521228,"target":34962},{"buffer":0,"byteLength":336,"byteOffset":521732,"target":34962},{"buffer":0,"byteLength":144,"byteOffset":522068,"target":34963},{"buffer":0,"byteLength":2664,"byteOffset":1882728,"target":34962},{"buffer":0,"byteLength":2664,"byteOffset":1885392,"target":34962},{"buffer":0,"byteLength":1776,"byteOffset":1888056,"target":34962},{"buffer":0,"byteLength":960,"byteOffset":1889832,"target":34963},{"buffer":0,"byteLength":2664,"byteOffset":1890792,"target":34962},{"buffer":0,"byteLength":2664,"byteOffset":1893456,"target":34962},{"buffer":0,"byteLength":1776,"byteOffset":1896120,"target":34962},{"buffer":0,"byteLength":960,"byteOffset":1897896,"target":34963},{"buffer":0,"byteLength":5316,"byteOffset":5526100,"target":34962},{"buffer":0,"byteLength":5316,"byteOffset":5531416,"target":34962},{"buffer":0,"byteLength":3544,"byteOffset":5536732,"target":34962},{"buffer":0,"byteLength":2304,"byteOffset":5540276,"target":34963},{"buffer":1,"byteLength":8040,"byteOffset":0,"target":34962},{"buffer":1,"byteLength":8040,"byteOffset":8040,"target":34962},{"buffer":1,"byteLength":5360,"byteOffset":16080,"target":34962},{"buffer":1,"byteLength":3312,"byteOffset":21440,"target":34963}],"buffers":[{"byteLength":6269260,"uri":"../../PolyHaven/modular_factory_facade/modular_factory_facade.bin"},{"byteLength":46192,"uri":"../../PolyHaven/rollershutter_door/rollershutter_door.bin"}],"materials":[{"doubleSided":true,"name":"modular_factory_facade_brick","normalTexture":{"index":0},"pbrMetallicRoughness":{"baseColorTexture":{"index":1},"metallicFactor":0,"metallicRoughnessTexture":{"index":2}}},{"doubleSided":true,"name":"modular_factory_facade_trim_01","normalTexture":{"index":3},"pbrMetallicRoughness":{"baseColorTexture":{"index":4},"metallicFactor":0,"metallicRoughnessTexture":{"index":5}}},{"doubleSided":true,"name":"modular_factory_facade_brick_doors","normalTexture":{"index":6},"pbrMetallicRoughness":{"baseColorTexture":{"index":7},"metallicRoughnessTexture":{"index":8}}},{"doubleSided":true,"name":"modular_factory_facade_windows","normalTexture":{"index":9},"pbrMetallicRoughness":{"baseColorTexture":{"index":10},"metallicFactor":0,"metallicRoughnessTexture":{"index":11}}},{"doubleSided":true,"name":"modular_factory_facade_garage","normalTexture":{"index":12},"pbrMetallicRoughness":{"baseColorTexture":{"index":13},"metallicRoughnessTexture":{"index":14}}},{"alphaMode":"BLEND","doubleSided":true,"name":"modular_factory_facade_windows_glass","normalTexture":{"index":15},"pbrMetallicRoughness":{"baseColorTexture":{"index":16},"metallicFactor":0,"metallicRoughnessTexture":{"index":17}}},{"doubleSided":true,"extensions":{"KHR_materials_specular":{"specularColorFactor":[0.948543059910952,0.948543059910952,0.948543059910952]},"KHR_materials_ior":{"ior":1.4500000476837158}},"name":"rollershutter_door","normalTexture":{"index":18},"pbrMetallicRoughness":{"baseColorTexture":{"index":19},"metallicRoughnessTexture":{"index":20}}}],"textures":[{"sampler":0,"source":0},{"sampler":0,"source":1},{"sampler":0,"source":2},{"sampler":0,"source":3},{"sampler":0,"source":4},{"sampler":0,"source":5},{"sampler":0,"source":6},{"sampler":0,"source":7},{"sampler":0,"source":8},{"sampler":0,"source":9},{"sampler":0,"source":10},{"sampler":0,"source":11},{"sampler":0,"source":12},{"sampler":0,"source":13},{"sampler":0,"source":14},{"sampler":0,"source":9},{"sampler":0,"source":15},{"sampler":0,"source":11},{"sampler":1,"source":16},{"sampler":1,"source":17},{"sampler":1,"source":18}],"images":[{"mimeType":"image/jpeg","name":"modular_factory_facade_brick_nor_gl","uri":"../../PolyHaven/modular_factory_facade/textures/modular_factory_facade_brick_nor_gl_2k.jpg"},{"mimeType":"image/jpeg","name":"modular_factory_facade_brick_diff","uri":"../../PolyHaven/modular_factory_facade/textures/modular_factory_facade_brick_diff_2k.jpg"},{"mimeType":"image/jpeg","name":"modular_factory_facade_brick_rough","uri":"../../PolyHaven/modular_factory_facade/textures/modular_factory_facade_brick_arm_2k.jpg"},{"mimeType":"image/jpeg","name":"modular_factory_facade_trim_01_nor_gl","uri":"../../PolyHaven/modular_factory_facade/textures/modular_factory_facade_trim_01_nor_gl_2k.jpg"},{"mimeType":"image/jpeg","name":"modular_factory_facade_trim_01_diff","uri":"../../PolyHaven/modular_factory_facade/textures/modular_factory_facade_trim_01_diff_2k.jpg"},{"mimeType":"image/jpeg","name":"modular_factory_facade_trim_01_rough","uri":"../../PolyHaven/modular_factory_facade/textures/modular_factory_facade_trim_01_arm_2k.jpg"},{"mimeType":"image/jpeg","name":"modular_factory_facade_doors_nor_gl","uri":"../../PolyHaven/modular_factory_facade/textures/modular_factory_facade_doors_nor_gl_2k.jpg"},{"mimeType":"image/jpeg","name":"modular_factory_facade_doors_diff","uri":"../../PolyHaven/modular_factory_facade/textures/modular_factory_facade_doors_diff_2k.jpg"},{"mimeType":"image/jpeg","name":"modular_factory_facade_doors_metal-modular_factory_facade_doors_rough","uri":"../../PolyHaven/modular_factory_facade/textures/modular_factory_facade_doors_arm_2k.jpg"},{"mimeType":"image/jpeg","name":"modular_factory_facade_windows_nor_gl","uri":"../../PolyHaven/modular_factory_facade/textures/modular_factory_facade_windows_nor_gl_2k.jpg"},{"mimeType":"image/jpeg","name":"modular_factory_facade_windows_diff","uri":"../../PolyHaven/modular_factory_facade/textures/modular_factory_facade_windows_diff_2k.jpg"},{"mimeType":"image/jpeg","name":"modular_factory_facade_windows_rough","uri":"../../PolyHaven/modular_factory_facade/textures/modular_factory_facade_windows_arm_2k.jpg"},{"mimeType":"image/jpeg","name":"modular_factory_facade_garage_nor_gl","uri":"../../PolyHaven/modular_factory_facade/textures/modular_factory_facade_garage_nor_gl_2k.jpg"},{"mimeType":"image/jpeg","name":"modular_factory_facade_garage_diff","uri":"../../PolyHaven/modular_factory_facade/textures/modular_factory_facade_garage_diff_2k.jpg"},{"mimeType":"image/jpeg","name":"modular_factory_facade_garage_metal-modular_factory_facade_garage_rough","uri":"../../PolyHaven/modular_factory_facade/textures/modular_factory_facade_garage_arm_2k.jpg"},{"mimeType":"image/jpeg","name":"modular_factory_facade_windows_diff-modular_factory_facade_windows_alpha","uri":"../../PolyHaven/modular_factory_facade/textures/modular_factory_facade_windows_diff_2k.jpg"},{"mimeType":"image/jpeg","name":"rollershutter_door_nor_gl","uri":"../../PolyHaven/rollershutter_door/textures/rollershutter_door_nor_gl_2k.jpg"},{"mimeType":"image/jpeg","name":"rollershutter_door_diff","uri":"../../PolyHaven/rollershutter_door/textures/rollershutter_door_diff_2k.jpg"},{"mimeType":"image/jpeg","name":"rollershutter_door_metal-rollershutter_door_rough","uri":"../../PolyHaven/rollershutter_door/textures/rollershutter_door_arm_2k.jpg"}],"samplers":[{"magFilter":9729,"minFilter":9987},{"magFilter":9729,"minFilter":9987}],"extensionsUsed":["KHR_materials_ior","KHR_materials_specular"]}
