{"asset":{"version":"2.0","generator":"ProjectE Tools/DemoMap/GltfKit.py"},"scene":0,"scenes":[{"nodes":[0,1,2,3,4,5,6,7,8]}],"nodes":[{"name":"modular_fort_01_wall_thin_straight_01_0","mesh":0,"matrix":[0.0,0.0,-1.0,0.0,0.0,1.0,0.0,0.0,1.0,0.0,0.0,0.0,-18.525,-0.4,15.0,1.0]},{"name":"modular_fort_01_wall_thin_gate_01_1","mesh":1,"matrix":[0.0,0.0,-1.0,0.0,0.0,1.0,0.0,0.0,1.0,0.0,0.0,0.0,-3.705,-0.4,15.0,1.0]},{"name":"modular_fort_01_wall_thin_straight_02_2","mesh":2,"matrix":[0.0,0.0,-1.0,0.0,0.0,1.0,0.0,0.0,1.0,0.0,0.0,0.0,3.705,-0.4,15.0,1.0]},{"name":"modular_fort_01_wall_thin_straight_02_3","mesh":2,"matrix":[1.0,0.0,0.0,0.0,0.0,1.0,0.0,0.0,0.0,0.0,1.0,0.0,-18.525,-0.4,-17.19,1.0]},{"name":"modular_fort_01_wall_thin_straight_01_4","mesh":0,"matrix":[1.0,0.0,0.0,0.0,0.0,1.0,0.0,0.0,0.0,0.0,1.0,0.0,-18.525,-0.4,-2.37,1.0]},{"name":"modular_fort_01_wall_stairs_straight_01_5","mesh":3,"matrix":[1.0,0.0,0.0,0.0,0.0,1.0,0.0,0.0,0.0,0.0,1.0,0.0,-16.465,-0.4,-17.19,1.0]},{"name":"modular_fort_01_wall_walkway_straight_01_6","mesh":4,"matrix":[1.0,0.0,0.0,0.0,0.0,1.0,0.0,0.0,0.0,0.0,1.0,0.0,-15.975,-0.4,-2.37,1.0]},{"name":"modular_fort_01_wall_thin_straight_01_7","mesh":0,"matrix":[-1.0,0.0,0.0,0.0,0.0,1.0,0.0,0.0,0.0,0.0,-1.0,0.0,18.525,-0.4,12.45,1.0]},{"name":"modular_fort_01_wall_thin_straight_02_8","mesh":2,"matrix":[-1.0,0.0,0.0,0.0,0.0,1.0,0.0,0.0,0.0,0.0,-1.0,0.0,18.525,-0.4,-2.37,1.0]}],"meshes":[{"name":"Plane.009","primitives":[{"attributes":{"POSITION":0,"NORMAL":1,"TEXCOORD_0":2,"TEXCOORD_1":3},"indices":4,"material":0},{"attributes":{"POSITION":5,"NORMAL":6,"TEXCOORD_0":7,"TEXCOORD_1":8},"indices":9,"material":1}]},{"name":"Plane.019","primitives":[{"attributes":{"POSITION":10,"NORMAL":11,"TEXCOORD_0":12,"TEXCOORD_1":13},"indices":14,"material":0},{"attributes":{"POSITION":15,"NORMAL":16,"TEXCOORD_0":17,"TEXCOORD_1":18},"indices":19,"material":1}]},{"name":"Plane.015","primitives":[{"attributes":{"POSITION":20,"NORMAL":21,"TEXCOORD_0":22,"TEXCOORD_1":23},"indices":24,"material":0},{"attributes":{"POSITION":25,"NORMAL":26,"TEXCOORD_0":27,"TEXCOORD_1":28},"indices":29,"material":1}]},{"name":"Plane.028","primitives":[{"attributes":{"POSITION":30,"NORMAL":31,"TEXCOORD_0":32,"TEXCOORD_1":33},"indices":34,"material":0},{"attributes":{"POSITION":35,"NORMAL":36,"TEXCOORD_0":37,"TEXCOORD_1":38},"indices":39,"material":1}]},{"name":"Plane.004","primitives":[{"attributes":{"POSITION":40,"NORMAL":41,"TEXCOORD_0":42,"TEXCOORD_1":43},"indices":44,"material":0},{"attributes":{"POSITION":45,"NORMAL":46,"TEXCOORD_0":47,"TEXCOORD_1":48},"indices":49,"material":1},{"attributes":{"POSITION":50,"NORMAL":51,"TEXCOORD_0":52,"TEXCOORD_1":53},"indices":54,"material":2}]}],"accessors":[{"bufferView":0,"componentType":5126,"count":56,"max":[2.5497798919677734,7.074151039123535,14.819398880004883],"min":[1.0247241277738794e-08,-4.656612873077393e-10,-1.8978475679887197e-07],"type":"VEC3"},{"bufferView":1,"componentType":5126,"count":56,"type":"VEC3"},{"bufferView":2,"componentType":5126,"count":56,"type":"VEC2"},{"bufferView":3,"componentType":5126,"count":56,"type":"VEC2"},{"bufferView":4,"componentType":5123,"count":168,"type":"SCALAR"},{"bufferView":5,"componentType":5126,"count":962,"max":[2.5392355918884277,8.605535507202148,14.819398880004883],"min":[0.8836135864257812,7.027763843536377,-0.0005417582578957081],"type":"VEC3"},{"bufferView":6,"componentType":5126,"count":962,"type":"VEC3"},{"bufferView":7,"componentType":5126,"count":962,"type":"VEC2"},{"bufferView":8,"componentType":5126,"count":962,"type":"VEC2"},{"bufferView":9,"componentType":5123,"count":3060,"type":"SCALAR"},{"bufferView":10,"componentType":5126,"count":422,"max":[2.5497758388519287,7.074151039123535,7.409695148468018],"min":[-0.0010572511237114668,-0.01069059781730175,2.870524440368172e-07],"type":"VEC3"},{"bufferView":11,"componentType":5126,"count":422,"type":"VEC3"},{"bufferView":12,"componentType":5126,"count":422,"type":"VEC2"},{"bufferView":13,"componentType":5126,"count":422,"type":"VEC2"},{"bufferView":14,"componentType":5123,"count":1152,"type":"SCALAR"},{"bufferView":15,"componentType":5126,"count":910,"max":[2.539231538772583,8.605535507202148,7.409696102142334],"min":[-0.12219410389661789,-0.01069059781730175,-0.0005412810714915395],"type":"VEC3"},{"bufferView":16,"componentType":5126,"count":910,"type":"VEC3"},{"bufferView":17,"componentType":5126,"count":910,"type":"VEC2"},{"bufferView":18,"componentType":5126,"count":910,"type":"VEC2"},{"bufferView":19,"componentType":5123,"count":2952,"type":"SCALAR"},{"bufferView":20,"componentType":5126,"count":708,"max":[2.5503430366516113,7.0766143798828125,14.819398880004883],"min":[9.571236887495616e-07,-7.534027099609375e-05,0],"type":"VEC3"},{"bufferView":21,"componentType":5126,"count":708,"type":"VEC3"},{"bufferView":22,"componentType":5126,"count":708,"type":"VEC2"},{"bufferView":23,"componentType":5126,"count":708,"type":"VEC2"},{"bufferView":24,"componentType":5123,"count":2112,"type":"SCALAR"},{"bufferView":25,"componentType":5126,"count":1589,"max":[2.5424933433532715,8.608351707458496,14.819401741027832],"min":[0.24360699951648712,2.20729660987854,-8.815883347779163e-07],"type":"VEC3"},{"bufferView":26,"componentType":5126,"count":1589,"type":"VEC3"},{"bufferView":27,"componentType":5126,"count":1589,"type":"VEC2"},{"bufferView":28,"componentType":5126,"count":1589,"type":"VEC2"},{"bufferView":29,"componentType":5123,"count":5016,"type":"SCALAR"},{"bufferView":30,"componentType":5126,"count":57,"max":[3.5386319160461426,7.104541301727295,14.819400787353516],"min":[-5.244268322712742e-06,0,2.6054018561734796e-14],"type":"VEC3"},{"bufferView":31,"componentType":5126,"count":57,"type":"VEC3"},{"bufferView":32,"componentType":5126,"count":57,"type":"VEC2"},{"bufferView":33,"componentType":5126,"count":57,"type":"VEC2"},{"bufferView":34,"componentType":5123,"count":156,"type":"SCALAR"},{"bufferView":35,"componentType":5126,"count":1091,"max":[3.5386319160461426,7.53277587890625,14.819400787353516],"min":[-5.244268322712742e-06,0,2.6054018561734796e-14],"type":"VEC3"},{"bufferView":36,"componentType":5126,"count":1091,"type":"VEC3"},{"bufferView":37,"componentType":5126,"count":1091,"type":"VEC2"},{"bufferView":38,"componentType":5126,"count":1091,"type":"VEC2"},{"bufferView":39,"componentType":5123,"count":3432,"type":"SCALAR"},{"bufferView":40,"componentType":5126,"count":304,"max":[3.1200029850006104,7.120541095733643,14.56266975402832],"min":[-7.152557373046875e-07,0,0],"type":"VEC3"},{"bufferView":41,"componentType":5126,"count":304,"type":"VEC3"},{"bufferView":42,"componentType":5126,"count":304,"type":"VEC2"},{"bufferView":43,"componentType":5126,"count":304,"type":"VEC2"},{"bufferView":44,"componentType":5123,"count":708,"type":"SCALAR"},{"bufferView":45,"componentType":5126,"count":498,"max":[3.1200029850006104,7.53277587890625,14.56266975402832],"min":[0.010543441399931908,6.129261016845703,0],"type":"VEC3"},{"bufferView":46,"componentType":5126,"count":498,"type":"VEC3"},{"bufferView":47,"componentType":5126,"count":498,"type":"VEC2"},{"bufferView":48,"componentType":5126,"count":498,"type":"VEC2"},{"bufferView":49,"componentType":5123,"count":1314,"type":"SCALAR"},{"bufferView":50,"componentType":5126,"count":2567,"max":[3.3664629459381104,6.139108657836914,14.56266975402832],"min":[0.010543444193899632,-0.16934627294540405,0],"type":"VEC3"},{"bufferView":51,"componentType":5126,"count":2567,"type":"VEC3"},{"bufferView":52,"componentType":5126,"count":2567,"type":"VEC2"},{"bufferView":53,"componentType":5126,"count":2567,"type":"VEC2"},{"bufferView":54,"componentType":5123,"count":5940,"type":"SCALAR"}],"bufferViews":[{"buffer":0,"byteLength":672,"byteOffset":457840},{"buffer":0,"byteLength":672,"byteOffset":458512},{"buffer":0,"byteLength":448,"byteOffset":459184},{"buffer":0,"byteLength":448,"byteOffset":459632},{"buffer":0,"byteLength":336,"byteOffset":460080},{"buffer":0,"byteLength":11544,"byteOffset":460416},{"buffer":0,"byteLength":11544,"byteOffset":471960},{"buffer":0,"byteLength":7696,"byteOffset":483504},{"buffer":0,"byteLength":7696,"byteOffset":491200},{"buffer":0,"byteLength":6120,"byteOffset":498896},{"buffer":0,"byteLength":5064,"byteOffset":723748},{"buffer":0,"byteLength":5064,"byteOffset":728812},{"buffer":0,"byteLength":3376,"byteOffset":733876},{"buffer":0,"byteLength":3376,"byteOffset":737252},{"buffer":0,"byteLength":2304,"byteOffset":740628},{"buffer":0,"byteLength":10920,"byteOffset":742932},{"buffer":0,"byteLength":10920,"byteOffset":753852},{"buffer":0,"byteLength":7280,"byteOffset":764772},{"buffer":0,"byteLength":7280,"byteOffset":772052},{"buffer":0,"byteLength":5904,"byteOffset":779332},{"buffer":0,"byteLength":8496,"byteOffset":570268},{"buffer":0,"byteLength":8496,"byteOffset":578764},{"buffer":0,"byteLength":5664,"byteOffset":587260},{"buffer":0,"byteLength":5664,"byteOffset":592924},{"buffer":0,"byteLength":4224,"byteOffset":598588},{"buffer":0,"byteLength":19068,"byteOffset":602812},{"buffer":0,"byteLength":19068,"byteOffset":621880},{"buffer":0,"byteLength":12712,"byteOffset":640948},{"buffer":0,"byteLength":12712,"byteOffset":653660},{"buffer":0,"byteLength":10032,"byteOffset":666372},{"buffer":0,"byteLength":684,"byteOffset":982992},{"buffer":0,"byteLength":684,"byteOffset":983676},{"buffer":0,"byteLength":456,"byteOffset":984360},{"buffer":0,"byteLength":456,"byteOffset":984816},{"buffer":0,"byteLength":312,"byteOffset":985272},{"buffer":0,"byteLength":13092,"byteOffset":985584},{"buffer":0,"byteLength":13092,"byteOffset":998676},{"buffer":0,"byteLength":8728,"byteOffset":1011768},{"buffer":0,"byteLength":8728,"byteOffset":1020496},{"buffer":0,"byteLength":6864,"byteOffset":1029224},{"buffer":0,"byteLength":3648,"byteOffset":825508},{"buffer":0,"byteLength":3648,"byteOffset":829156},{"buffer":0,"byteLength":2432,"byteOffset":832804},{"buffer":0,"byteLength":2432,"byteOffset":835236},{"buffer":0,"byteLength":1416,"byteOffset":837668},{"buffer":0,"byteLength":5976,"byteOffset":839084},{"buffer":0,"byteLength":5976,"byteOffset":845060},{"buffer":0,"byteLength":3984,"byteOffset":851036},{"buffer":0,"byteLength":3984,"byteOffset":855020},{"buffer":0,"byteLength":2628,"byteOffset":859004},{"buffer":0,"byteLength":30804,"byteOffset":861632},{"buffer":0,"byteLength":30804,"byteOffset":892436},{"buffer":0,"byteLength":20536,"byteOffset":923240},{"buffer":0,"byteLength":20536,"byteOffset":943776},{"buffer":0,"byteLength":11880,"byteOffset":964312}],"buffers":[{"byteLength":1288144,"uri":"../../PolyHaven/modular_fort_01/modular_fort_01.bin"}],"materials":[{"doubleSided":true,"name":"modular_fort_01_wall_1","normalTexture":{"index":0},"pbrMetallicRoughness":{"baseColorTexture":{"index":1},"metallicFactor":0,"metallicRoughnessTexture":{"index":2}}},{"doubleSided":true,"name":"modular_fort_01_trim_1","normalTexture":{"index":3},"pbrMetallicRoughness":{"baseColorTexture":{"index":4},"metallicFactor":0,"metallicRoughnessTexture":{"index":5}}},{"doubleSided":true,"name":"modular_fort_01_plaster_1","normalTexture":{"index":6,"scale":0.5},"pbrMetallicRoughness":{"baseColorTexture":{"index":7},"metallicFactor":0,"metallicRoughnessTexture":{"index":8}}}],"textures":[{"sampler":0,"source":0},{"sampler":0,"source":1},{"sampler":0,"source":2},{"sampler":0,"source":3},{"sampler":0,"source":4},{"sampler":0,"source":5},{"sampler":0,"source":6},{"sampler":0,"source":7},{"sampler":0,"source":8}],"images":[{"mimeType":"image/jpeg","name":"modular_fort_01_wall_nor_gl","uri":"../../PolyHaven/modular_fort_01/textures/modular_fort_01_wall_nor_gl_2k.jpg"},{"mimeType":"image/jpeg","name":"modular_fort_01_wall_diff","uri":"../../PolyHaven/modular_fort_01/textures/modular_fort_01_wall_diff_2k.jpg"},{"mimeType":"image/jpeg","name":"modular_fort_01_wall_rough","uri":"../../PolyHaven/modular_fort_01/textures/modular_fort_01_wall_arm_2k.jpg"},{"mimeType":"image/jpeg","name":"modular_fort_01_trim_nor_gl","uri":"../../PolyHaven/modular_fort_01/textures/modular_fort_01_trim_nor_gl_2k.jpg"},{"mimeType":"image/jpeg","name":"modular_fort_01_trim_diff","uri":"../../PolyHaven/modular_fort_01/textures/modular_fort_01_trim_diff_2k.jpg"},{"mimeType":"image/jpeg","name":"modular_fort_01_trim_rough","uri":"../../PolyHaven/modular_fort_01/textures/modular_fort_01_trim_arm_2k.jpg"},{"mimeType":"image/jpeg","name":"modular_fort_01_plaster_nor_gl","uri":"../../PolyHaven/modular_fort_01/textures/modular_fort_01_plaster_nor_gl_2k.jpg"},{"mimeType":"image/jpeg","name":"modular_fort_01_plaster_diff","uri":"../../PolyHaven/modular_fort_01/textures/modular_fort_01_plaster_diff_2k.jpg"},{"mimeType":"image/jpeg","name":"modular_fort_01_plaster_rough","uri":"../../PolyHaven/modular_fort_01/textures/modular_fort_01_plaster_arm_2k.jpg"}],"samplers":[{"magFilter":9729,"minFilter":9987}]}
