{
 "asset": {
  "version": "2.0",
  "generator": "ProjectE HD2DMeshKit"
 },
 "scene": 0,
 "scenes": [
  {
   "nodes": [
    0
   ]
  }
 ],
 "nodes": [
  {
   "name": "HarborLighthouse",
   "mesh": 0
  }
 ],
 "meshes": [
  {
   "name": "HarborLighthouse",
   "primitives": [
    {
     "attributes": {
      "POSITION": 0,
      "NORMAL": 1,
      "TEXCOORD_0": 2
     },
     "indices": 3,
     "material": 0
    },
    {
     "attributes": {
      "POSITION": 4,
      "NORMAL": 5,
      "TEXCOORD_0": 6
     },
     "indices": 7,
     "material": 1
    },
    {
     "attributes": {
      "POSITION": 8,
      "NORMAL": 9,
      "TEXCOORD_0": 10
     },
     "indices": 11,
     "material": 2
    },
    {
     "attributes": {
      "POSITION": 12,
      "NORMAL": 13,
      "TEXCOORD_0": 14
     },
     "indices": 15,
     "material": 3
    },
    {
     "attributes": {
      "POSITION": 16,
      "NORMAL": 17,
      "TEXCOORD_0": 18
     },
     "indices": 19,
     "material": 4
    },
    {
     "attributes": {
      "POSITION": 20,
      "NORMAL": 21,
      "TEXCOORD_0": 22
     },
     "indices": 23,
     "material": 5
    }
   ]
  }
 ],
 "materials": [
  {
   "name": "HarborLighthouseStone",
   "pbrMetallicRoughness": {
    "baseColorFactor": [
     0.9,
     0.88,
     0.84,
     1.0
    ],
    "metallicFactor": 0.0,
    "roughnessFactor": 1.0,
    "baseColorTexture": {
     "index": 0
    },
    "metallicRoughnessTexture": {
     "index": 1
    }
   },
   "doubleSided": false,
   "normalTexture": {
    "index": 2,
    "scale": 1.0
   },
   "occlusionTexture": {
    "index": 1
   }
  },
  {
   "name": "HarborLighthouseWhite",
   "pbrMetallicRoughness": {
    "baseColorFactor": [
     1.05,
     1.03,
     0.98,
     1.0
    ],
    "metallicFactor": 0.0,
    "roughnessFactor": 1.0,
    "baseColorTexture": {
     "index": 3
    },
    "metallicRoughnessTexture": {
     "index": 4
    }
   },
   "doubleSided": false,
   "normalTexture": {
    "index": 5,
    "scale": 1.0
   },
   "occlusionTexture": {
    "index": 4
   }
  },
  {
   "name": "HarborLighthouseRed",
   "pbrMetallicRoughness": {
    "baseColorFactor": [
     0.78,
     0.16,
     0.12,
     1.0
    ],
    "metallicFactor": 0.0,
    "roughnessFactor": 1.0,
    "baseColorTexture": {
     "index": 3
    },
    "metallicRoughnessTexture": {
     "index": 4
    }
   },
   "doubleSided": false,
   "normalTexture": {
    "index": 5,
    "scale": 1.0
   },
   "occlusionTexture": {
    "index": 4
   }
  },
  {
   "name": "HarborLighthouseDoor",
   "pbrMetallicRoughness": {
    "baseColorFactor": [
     0.55,
     0.4,
     0.3,
     1.0
    ],
    "metallicFactor": 0.0,
    "roughnessFactor": 1.0,
    "baseColorTexture": {
     "index": 6
    },
    "metallicRoughnessTexture": {
     "index": 7
    }
   },
   "doubleSided": false,
   "normalTexture": {
    "index": 8,
    "scale": 1.0
   },
   "occlusionTexture": {
    "index": 7
   }
  },
  {
   "name": "HarborLighthouseIron",
   "pbrMetallicRoughness": {
    "baseColorFactor": [
     0.06,
     0.065,
     0.07,
     1.0
    ],
    "metallicFactor": 1.0,
    "roughnessFactor": 0.45
   },
   "doubleSided": false
  },
  {
   "name": "HarborLighthouseRoof",
   "pbrMetallicRoughness": {
    "baseColorFactor": [
     0.55,
     0.12,
     0.1,
     1.0
    ],
    "metallicFactor": 0.6,
    "roughnessFactor": 0.5
   },
   "doubleSided": false
  }
 ],
 "accessors": [
  {
   "bufferView": 0,
   "componentType": 5126,
   "count": 324,
   "type": "VEC3",
   "min": [
    -1.75,
    -0.20000000298023224,
    -1.75
   ],
   "max": [
    1.75,
    2.069999933242798,
    1.75
   ]
  },
  {
   "bufferView": 1,
   "componentType": 5126,
   "count": 324,
   "type": "VEC3"
  },
  {
   "bufferView": 2,
   "componentType": 5126,
   "count": 324,
   "type": "VEC2"
  },
  {
   "bufferView": 3,
   "componentType": 5125,
   "count": 324,
   "type": "SCALAR"
  },
  {
   "bufferView": 4,
   "componentType": 5126,
   "count": 504,
   "type": "VEC3",
   "min": [
    -1.399999976158142,
    0.5,
    -1.399999976158142
   ],
   "max": [
    1.399999976158142,
    3.5,
    1.399999976158142
   ]
  },
  {
   "bufferView": 5,
   "componentType": 5126,
   "count": 504,
   "type": "VEC3"
  },
  {
   "bufferView": 6,
   "componentType": 5126,
   "count": 504,
   "type": "VEC2"
  },
  {
   "bufferView": 7,
   "componentType": 5125,
   "count": 504,
   "type": "SCALAR"
  },
  {
   "bufferView": 8,
   "componentType": 5126,
   "count": 336,
   "type": "VEC3",
   "min": [
    -1.3253333568572998,
    1.2000000476837158,
    -1.3253333568572998
   ],
   "max": [
    1.3253333568572998,
    2.9000000953674316,
    1.3253333568572998
   ]
  },
  {
   "bufferView": 9,
   "componentType": 5126,
   "count": 336,
   "type": "VEC3"
  },
  {
   "bufferView": 10,
   "componentType": 5126,
   "count": 336,
   "type": "VEC2"
  },
  {
   "bufferView": 11,
   "componentType": 5125,
   "count": 336,
   "type": "SCALAR"
  },
  {
   "bufferView": 12,
   "componentType": 5126,
   "count": 36,
   "type": "VEC3",
   "min": [
    -0.3799999952316284,
    0.5,
    1.215333342552185
   ],
   "max": [
    0.3799999952316284,
    1.940000057220459,
    1.3553333282470703
   ]
  },
  {
   "bufferView": 13,
   "componentType": 5126,
   "count": 36,
   "type": "VEC3"
  },
  {
   "bufferView": 14,
   "componentType": 5126,
   "count": 36,
   "type": "VEC2"
  },
  {
   "bufferView": 15,
   "componentType": 5125,
   "count": 36,
   "type": "SCALAR"
  },
  {
   "bufferView": 16,
   "componentType": 5126,
   "count": 3672,
   "type": "VEC3",
   "min": [
    -1.5,
    2.2100000381469727,
    -1.5
   ],
   "max": [
    1.5,
    5.739999771118164,
    1.5
   ]
  },
  {
   "bufferView": 17,
   "componentType": 5126,
   "count": 3672,
   "type": "VEC3"
  },
  {
   "bufferView": 18,
   "componentType": 5126,
   "count": 3672,
   "type": "VEC2"
  },
  {
   "bufferView": 19,
   "componentType": 5125,
   "count": 3672,
   "type": "SCALAR"
  },
  {
   "bufferView": 20,
   "componentType": 5126,
   "count": 648,
   "type": "VEC3",
   "min": [
    -1.1200000047683716,
    4.71999979019165,
    -1.1200000047683716
   ],
   "max": [
    1.1200000047683716,
    5.360000133514404,
    1.1200000047683716
   ]
  },
  {
   "bufferView": 21,
   "componentType": 5126,
   "count": 648,
   "type": "VEC3"
  },
  {
   "bufferView": 22,
   "componentType": 5126,
   "count": 648,
   "type": "VEC2"
  },
  {
   "bufferView": 23,
   "componentType": 5125,
   "count": 648,
   "type": "SCALAR"
  }
 ],
 "bufferViews": [
  {
   "buffer": 0,
   "byteOffset": 0,
   "byteLength": 3888,
   "target": 34962
  },
  {
   "buffer": 0,
   "byteOffset": 3888,
   "byteLength": 3888,
   "target": 34962
  },
  {
   "buffer": 0,
   "byteOffset": 7776,
   "byteLength": 2592,
   "target": 34962
  },
  {
   "buffer": 0,
   "byteOffset": 10368,
   "byteLength": 1296,
   "target": 34963
  },
  {
   "buffer": 0,
   "byteOffset": 11664,
   "byteLength": 6048,
   "target": 34962
  },
  {
   "buffer": 0,
   "byteOffset": 17712,
   "byteLength": 6048,
   "target": 34962
  },
  {
   "buffer": 0,
   "byteOffset": 23760,
   "byteLength": 4032,
   "target": 34962
  },
  {
   "buffer": 0,
   "byteOffset": 27792,
   "byteLength": 2016,
   "target": 34963
  },
  {
   "buffer": 0,
   "byteOffset": 29808,
   "byteLength": 4032,
   "target": 34962
  },
  {
   "buffer": 0,
   "byteOffset": 33840,
   "byteLength": 4032,
   "target": 34962
  },
  {
   "buffer": 0,
   "byteOffset": 37872,
   "byteLength": 2688,
   "target": 34962
  },
  {
   "buffer": 0,
   "byteOffset": 40560,
   "byteLength": 1344,
   "target": 34963
  },
  {
   "buffer": 0,
   "byteOffset": 41904,
   "byteLength": 432,
   "target": 34962
  },
  {
   "buffer": 0,
   "byteOffset": 42336,
   "byteLength": 432,
   "target": 34962
  },
  {
   "buffer": 0,
   "byteOffset": 42768,
   "byteLength": 288,
   "target": 34962
  },
  {
   "buffer": 0,
   "byteOffset": 43056,
   "byteLength": 144,
   "target": 34963
  },
  {
   "buffer": 0,
   "byteOffset": 43200,
   "byteLength": 44064,
   "target": 34962
  },
  {
   "buffer": 0,
   "byteOffset": 87264,
   "byteLength": 44064,
   "target": 34962
  },
  {
   "buffer": 0,
   "byteOffset": 131328,
   "byteLength": 29376,
   "target": 34962
  },
  {
   "buffer": 0,
   "byteOffset": 160704,
   "byteLength": 14688,
   "target": 34963
  },
  {
   "buffer": 0,
   "byteOffset": 175392,
   "byteLength": 7776,
   "target": 34962
  },
  {
   "buffer": 0,
   "byteOffset": 183168,
   "byteLength": 7776,
   "target": 34962
  },
  {
   "buffer": 0,
   "byteOffset": 190944,
   "byteLength": 5184,
   "target": 34962
  },
  {
   "buffer": 0,
   "byteOffset": 196128,
   "byteLength": 2592,
   "target": 34963
  }
 ],
 "buffers": [
  {
   "uri": "HarborLighthouse.bin",
   "byteLength": 198720
  }
 ],
 "images": [
  {
   "uri": "../../../../Asset/PolyHaven/modular_fort_01/textures/modular_fort_01_wall_diff_2k.jpg"
  },
  {
   "uri": "../../../../Asset/PolyHaven/modular_fort_01/textures/modular_fort_01_wall_arm_2k.jpg"
  },
  {
   "uri": "../../../../Asset/PolyHaven/modular_fort_01/textures/modular_fort_01_wall_nor_gl_2k.jpg"
  },
  {
   "uri": "../../../../Asset/PolyHaven/plastered_wall_04/plastered_wall_04_diff_2k.jpg"
  },
  {
   "uri": "../../../../Asset/PolyHaven/plastered_wall_04/plastered_wall_04_arm_2k.jpg"
  },
  {
   "uri": "../../../../Asset/PolyHaven/plastered_wall_04/plastered_wall_04_nor_gl_2k.jpg"
  },
  {
   "uri": "../../../../Asset/PolyHaven/dark_wooden_planks/dark_wooden_planks_diff_2k.jpg"
  },
  {
   "uri": "../../../../Asset/PolyHaven/dark_wooden_planks/dark_wooden_planks_arm_2k.jpg"
  },
  {
   "uri": "../../../../Asset/PolyHaven/dark_wooden_planks/dark_wooden_planks_nor_gl_2k.jpg"
  }
 ],
 "textures": [
  {
   "source": 0,
   "sampler": 0
  },
  {
   "source": 1,
   "sampler": 0
  },
  {
   "source": 2,
   "sampler": 0
  },
  {
   "source": 3,
   "sampler": 0
  },
  {
   "source": 4,
   "sampler": 0
  },
  {
   "source": 5,
   "sampler": 0
  },
  {
   "source": 6,
   "sampler": 0
  },
  {
   "source": 7,
   "sampler": 0
  },
  {
   "source": 8,
   "sampler": 0
  }
 ],
 "samplers": [
  {
   "magFilter": 9729,
   "minFilter": 9987,
   "wrapS": 10497,
   "wrapT": 10497
  }
 ]
}
