{
 "asset": {
  "version": "2.0",
  "generator": "ProjectE HD2DMeshKit"
 },
 "scene": 0,
 "scenes": [
  {
   "nodes": [
    0
   ]
  }
 ],
 "nodes": [
  {
   "name": "HarborBollard",
   "mesh": 0
  }
 ],
 "meshes": [
  {
   "name": "HarborBollard",
   "primitives": [
    {
     "attributes": {
      "POSITION": 0,
      "NORMAL": 1,
      "TEXCOORD_0": 2
     },
     "indices": 3,
     "material": 0
    }
   ]
  }
 ],
 "materials": [
  {
   "name": "HarborBollard",
   "pbrMetallicRoughness": {
    "baseColorFactor": [
     0.08,
     0.085,
     0.09,
     1.0
    ],
    "metallicFactor": 1.0,
    "roughnessFactor": 0.55
   },
   "doubleSided": false
  }
 ],
 "accessors": [
  {
   "bufferView": 0,
   "componentType": 5126,
   "count": 546,
   "type": "VEC3",
   "min": [
    -0.16573774814605713,
    -0.05000000074505806,
    -0.17000000178813934
   ],
   "max": [
    0.16573774814605713,
    0.6000000238418579,
    0.17000000178813934
   ]
  },
  {
   "bufferView": 1,
   "componentType": 5126,
   "count": 546,
   "type": "VEC3"
  },
  {
   "bufferView": 2,
   "componentType": 5126,
   "count": 546,
   "type": "VEC2"
  },
  {
   "bufferView": 3,
   "componentType": 5125,
   "count": 546,
   "type": "SCALAR"
  }
 ],
 "bufferViews": [
  {
   "buffer": 0,
   "byteOffset": 0,
   "byteLength": 6552,
   "target": 34962
  },
  {
   "buffer": 0,
   "byteOffset": 6552,
   "byteLength": 6552,
   "target": 34962
  },
  {
   "buffer": 0,
   "byteOffset": 13104,
   "byteLength": 4368,
   "target": 34962
  },
  {
   "buffer": 0,
   "byteOffset": 17472,
   "byteLength": 2184,
   "target": 34963
  }
 ],
 "buffers": [
  {
   "uri": "HarborBollard.bin",
   "byteLength": 19656
  }
 ]
}
