{"asset":{"version":"2.0","generator":"ProjectE Tools/DemoMap/GltfKit.py"},"scene":0,"scenes":[{"nodes":[0,1,2,3,4,5,6]}],"nodes":[{"name":"modular_fort_01_wall_thin_straight_01_0","mesh":0,"matrix":[-1.0,0.0,0.0,0.0,0.0,1.0,0.0,0.0,0.0,0.0,-1.0,0.0,0.0,-0.4,-6.0,1.0]},{"name":"modular_fort_01_wall_thin_gate_01_1","mesh":1,"matrix":[-1.0,0.0,0.0,0.0,0.0,1.0,0.0,0.0,0.0,0.0,-1.0,0.0,0.0,-0.4,-20.82,1.0]},{"name":"modular_fort_01_wall_thin_straight_02_2","mesh":2,"matrix":[-1.0,0.0,0.0,0.0,0.0,1.0,0.0,0.0,0.0,0.0,-1.0,0.0,0.0,-0.4,-28.23,1.0]},{"name":"modular_fort_01_tower_round_3","mesh":3,"matrix":[1.0,0.0,0.0,0.0,0.0,1.0,0.0,0.0,0.0,0.0,1.0,0.0,-3.8,-0.4,-3.0,1.0]},{"name":"modular_fort_01_tower_round_4","mesh":3,"matrix":[0.766044,0.0,0.642788,0.0,0.0,1.0,0.0,0.0,-0.642788,0.0,0.766044,0.0,-3.8,-0.4,-46.05,1.0]},{"name":"modular_fort_01_wall_thick_straight_01_5","mesh":4,"matrix":[-1.0,0.0,0.0,0.0,0.0,1.0,0.0,0.0,0.0,0.0,-1.0,0.0,-14.0,-0.4,-16.0,1.0]},{"name":"modular_fort_01_wall_thick_straight_02_6","mesh":5,"matrix":[-1.0,0.0,0.0,0.0,0.0,1.0,0.0,0.0,0.0,0.0,-1.0,0.0,-14.0,-0.4,-30.56,1.0]}],"meshes":[{"name":"Plane.009","primitives":[{"attributes":{"POSITION":0,"NORMAL":1,"TEXCOORD_0":2,"TEXCOORD_1":3},"indices":4,"material":0},{"attributes":{"POSITION":5,"NORMAL":6,"TEXCOORD_0":7,"TEXCOORD_1":8},"indices":9,"material":1}]},{"name":"Plane.019","primitives":[{"attributes":{"POSITION":10,"NORMAL":11,"TEXCOORD_0":12,"TEXCOORD_1":13},"indices":14,"material":0},{"attributes":{"POSITION":15,"NORMAL":16,"TEXCOORD_0":17,"TEXCOORD_1":18},"indices":19,"material":1}]},{"name":"Plane.015","primitives":[{"attributes":{"POSITION":20,"NORMAL":21,"TEXCOORD_0":22,"TEXCOORD_1":23},"indices":24,"material":0},{"attributes":{"POSITION":25,"NORMAL":26,"TEXCOORD_0":27,"TEXCOORD_1":28},"indices":29,"material":1}]},{"name":"Cylinder","primitives":[{"attributes":{"POSITION":30,"NORMAL":31,"TEXCOORD_0":32,"TEXCOORD_1":33},"indices":34,"material":0},{"attributes":{"POSITION":35,"NORMAL":36,"TEXCOORD_0":37,"TEXCOORD_1":38},"indices":39,"material":1}]},{"name":"Plane.006","primitives":[{"attributes":{"POSITION":40,"NORMAL":41,"TEXCOORD_0":42,"TEXCOORD_1":43},"indices":44,"material":0},{"attributes":{"POSITION":45,"NORMAL":46,"TEXCOORD_0":47,"TEXCOORD_1":48},"indices":49,"material":1}]},{"name":"Plane.026","primitives":[{"attributes":{"POSITION":50,"NORMAL":51,"TEXCOORD_0":52,"TEXCOORD_1":53},"indices":54,"material":0},{"attributes":{"POSITION":55,"NORMAL":56,"TEXCOORD_0":57,"TEXCOORD_1":58},"indices":59,"material":1}]}],"accessors":[{"bufferView":0,"componentType":5126,"count":56,"max":[2.5497798919677734,7.074151039123535,14.819398880004883],"min":[1.0247241277738794e-08,-4.656612873077393e-10,-1.8978475679887197e-07],"type":"VEC3"},{"bufferView":1,"componentType":5126,"count":56,"type":"VEC3"},{"bufferView":2,"componentType":5126,"count":56,"type":"VEC2"},{"bufferView":3,"componentType":5126,"count":56,"type":"VEC2"},{"bufferView":4,"componentType":5123,"count":168,"type":"SCALAR"},{"bufferView":5,"componentType":5126,"count":962,"max":[2.5392355918884277,8.605535507202148,14.819398880004883],"min":[0.8836135864257812,7.027763843536377,-0.0005417582578957081],"type":"VEC3"},{"bufferView":6,"componentType":5126,"count":962,"type":"VEC3"},{"bufferView":7,"componentType":5126,"count":962,"type":"VEC2"},{"bufferView":8,"componentType":5126,"count":962,"type":"VEC2"},{"bufferView":9,"componentType":5123,"count":3060,"type":"SCALAR"},{"bufferView":10,"componentType":5126,"count":422,"max":[2.5497758388519287,7.074151039123535,7.409695148468018],"min":[-0.0010572511237114668,-0.01069059781730175,2.870524440368172e-07],"type":"VEC3"},{"bufferView":11,"componentType":5126,"count":422,"type":"VEC3"},{"bufferView":12,"componentType":5126,"count":422,"type":"VEC2"},{"bufferView":13,"componentType":5126,"count":422,"type":"VEC2"},{"bufferView":14,"componentType":5123,"count":1152,"type":"SCALAR"},{"bufferView":15,"componentType":5126,"count":910,"max":[2.539231538772583,8.605535507202148,7.409696102142334],"min":[-0.12219410389661789,-0.01069059781730175,-0.0005412810714915395],"type":"VEC3"},{"bufferView":16,"componentType":5126,"count":910,"type":"VEC3"},{"bufferView":17,"componentType":5126,"count":910,"type":"VEC2"},{"bufferView":18,"componentType":5126,"count":910,"type":"VEC2"},{"bufferView":19,"componentType":5123,"count":2952,"type":"SCALAR"},{"bufferView":20,"componentType":5126,"count":708,"max":[2.5503430366516113,7.0766143798828125,14.819398880004883],"min":[9.571236887495616e-07,-7.534027099609375e-05,0],"type":"VEC3"},{"bufferView":21,"componentType":5126,"count":708,"type":"VEC3"},{"bufferView":22,"componentType":5126,"count":708,"type":"VEC2"},{"bufferView":23,"componentType":5126,"count":708,"type":"VEC2"},{"bufferView":24,"componentType":5123,"count":2112,"type":"SCALAR"},{"bufferView":25,"componentType":5126,"count":1589,"max":[2.5424933433532715,8.608351707458496,14.819401741027832],"min":[0.24360699951648712,2.20729660987854,-8.815883347779163e-07],"type":"VEC3"},{"bufferView":26,"componentType":5126,"count":1589,"type":"VEC3"},{"bufferView":27,"componentType":5126,"count":1589,"type":"VEC2"},{"bufferView":28,"componentType":5126,"count":1589,"type":"VEC2"},{"bufferView":29,"componentType":5123,"count":5016,"type":"SCALAR"},{"bufferView":30,"componentType":5126,"count":620,"max":[7.918807029724121,13.256525993347168,7.919891357421875],"min":[-7.919637680053711,4.76837158203125e-07,-7.918553352355957],"type":"VEC3"},{"bufferView":31,"componentType":5126,"count":620,"type":"VEC3"},{"bufferView":32,"componentType":5126,"count":620,"type":"VEC2"},{"bufferView":33,"componentType":5126,"count":620,"type":"VEC2"},{"bufferView":34,"componentType":5123,"count":2376,"type":"SCALAR"},{"bufferView":35,"componentType":5126,"count":3924,"max":[6.354609489440918,13.498151779174805,6.355693817138672],"min":[-6.355438709259033,11.297492980957031,-6.3543548583984375],"type":"VEC3"},{"bufferView":36,"componentType":5126,"count":3924,"type":"VEC3"},{"bufferView":37,"componentType":5126,"count":3924,"type":"VEC2"},{"bufferView":38,"componentType":5126,"count":3924,"type":"VEC2"},{"bufferView":39,"componentType":5123,"count":11940,"type":"SCALAR"},{"bufferView":40,"componentType":5126,"count":382,"max":[4.1720733642578125,7.782875061035156,14.562668800354004],"min":[4.76837158203125e-07,0,9.5367431640625e-07],"type":"VEC3"},{"bufferView":41,"componentType":5126,"count":382,"type":"VEC3"},{"bufferView":42,"componentType":5126,"count":382,"type":"VEC2"},{"bufferView":43,"componentType":5126,"count":382,"type":"VEC2"},{"bufferView":44,"componentType":5123,"count":1368,"type":"SCALAR"},{"bufferView":45,"componentType":5126,"count":1846,"max":[4.161529541015625,8.525627136230469,14.562788009643555],"min":[0.8873808979988098,7.027763843536377,4.57763671875e-05],"type":"VEC3"},{"bufferView":46,"componentType":5126,"count":1846,"type":"VEC3"},{"bufferView":47,"componentType":5126,"count":1846,"type":"VEC2"},{"bufferView":48,"componentType":5126,"count":1846,"type":"VEC2"},{"bufferView":49,"componentType":5123,"count":5652,"type":"SCALAR"},{"bufferView":50,"componentType":5126,"count":931,"max":[4.1720733642578125,7.782875061035156,14.562668800354004],"min":[4.76837158203125e-07,0,9.5367431640625e-07],"type":"VEC3"},{"bufferView":51,"componentType":5126,"count":931,"type":"VEC3"},{"bufferView":52,"componentType":5126,"count":931,"type":"VEC2"},{"bufferView":53,"componentType":5126,"count":931,"type":"VEC2"},{"bufferView":54,"componentType":5123,"count":2988,"type":"SCALAR"},{"bufferView":55,"componentType":5126,"count":4148,"max":[4.227734565734863,8.521389961242676,14.562788009643555],"min":[0.2404913604259491,2.018496513366699,4.57763671875e-05],"type":"VEC3"},{"bufferView":56,"componentType":5126,"count":4148,"type":"VEC3"},{"bufferView":57,"componentType":5126,"count":4148,"type":"VEC2"},{"bufferView":58,"componentType":5126,"count":4148,"type":"VEC2"},{"bufferView":59,"componentType":5123,"count":15000,"type":"SCALAR"}],"bufferViews":[{"buffer":0,"byteLength":672,"byteOffset":457840},{"buffer":0,"byteLength":672,"byteOffset":458512},{"buffer":0,"byteLength":448,"byteOffset":459184},{"buffer":0,"byteLength":448,"byteOffset":459632},{"buffer":0,"byteLength":336,"byteOffset":460080},{"buffer":0,"byteLength":11544,"byteOffset":460416},{"buffer":0,"byteLength":11544,"byteOffset":471960},{"buffer":0,"byteLength":7696,"byteOffset":483504},{"buffer":0,"byteLength":7696,"byteOffset":491200},{"buffer":0,"byteLength":6120,"byteOffset":498896},{"buffer":0,"byteLength":5064,"byteOffset":723748},{"buffer":0,"byteLength":5064,"byteOffset":728812},{"buffer":0,"byteLength":3376,"byteOffset":733876},{"buffer":0,"byteLength":3376,"byteOffset":737252},{"buffer":0,"byteLength":2304,"byteOffset":740628},{"buffer":0,"byteLength":10920,"byteOffset":742932},{"buffer":0,"byteLength":10920,"byteOffset":753852},{"buffer":0,"byteLength":7280,"byteOffset":764772},{"buffer":0,"byteLength":7280,"byteOffset":772052},{"buffer":0,"byteLength":5904,"byteOffset":779332},{"buffer":0,"byteLength":8496,"byteOffset":570268},{"buffer":0,"byteLength":8496,"byteOffset":578764},{"buffer":0,"byteLength":5664,"byteOffset":587260},{"buffer":0,"byteLength":5664,"byteOffset":592924},{"buffer":0,"byteLength":4224,"byteOffset":598588},{"buffer":0,"byteLength":19068,"byteOffset":602812},{"buffer":0,"byteLength":19068,"byteOffset":621880},{"buffer":0,"byteLength":12712,"byteOffset":640948},{"buffer":0,"byteLength":12712,"byteOffset":653660},{"buffer":0,"byteLength":10032,"byteOffset":666372},{"buffer":0,"byteLength":7440,"byteOffset":37936},{"buffer":0,"byteLength":7440,"byteOffset":45376},{"buffer":0,"byteLength":4960,"byteOffset":52816},{"buffer":0,"byteLength":4960,"byteOffset":57776},{"buffer":0,"byteLength":4752,"byteOffset":62736},{"buffer":0,"byteLength":47088,"byteOffset":67488},{"buffer":0,"byteLength":47088,"byteOffset":114576},{"buffer":0,"byteLength":31392,"byteOffset":161664},{"buffer":0,"byteLength":31392,"byteOffset":193056},{"buffer":0,"byteLength":23880,"byteOffset":224448},{"buffer":0,"byteLength":4584,"byteOffset":248328},{"buffer":0,"byteLength":4584,"byteOffset":252912},{"buffer":0,"byteLength":3056,"byteOffset":257496},{"buffer":0,"byteLength":3056,"byteOffset":260552},{"buffer":0,"byteLength":2736,"byteOffset":263608},{"buffer":0,"byteLength":22152,"byteOffset":266344},{"buffer":0,"byteLength":22152,"byteOffset":288496},{"buffer":0,"byteLength":14768,"byteOffset":310648},{"buffer":0,"byteLength":14768,"byteOffset":325416},{"buffer":0,"byteLength":11304,"byteOffset":340184},{"buffer":0,"byteLength":11172,"byteOffset":1039812},{"buffer":0,"byteLength":11172,"byteOffset":1050984},{"buffer":0,"byteLength":7448,"byteOffset":1062156},{"buffer":0,"byteLength":7448,"byteOffset":1069604},{"buffer":0,"byteLength":5976,"byteOffset":1077052},{"buffer":0,"byteLength":49776,"byteOffset":1083028},{"buffer":0,"byteLength":49776,"byteOffset":1132804},{"buffer":0,"byteLength":33184,"byteOffset":1182580},{"buffer":0,"byteLength":33184,"byteOffset":1215764},{"buffer":0,"byteLength":30000,"byteOffset":1248948}],"buffers":[{"byteLength":1288144,"uri":"../../PolyHaven/modular_fort_01/modular_fort_01.bin"}],"materials":[{"doubleSided":true,"name":"modular_fort_01_wall_1","normalTexture":{"index":0},"pbrMetallicRoughness":{"baseColorTexture":{"index":1},"metallicFactor":0,"metallicRoughnessTexture":{"index":2}}},{"doubleSided":true,"name":"modular_fort_01_trim_1","normalTexture":{"index":3},"pbrMetallicRoughness":{"baseColorTexture":{"index":4},"metallicFactor":0,"metallicRoughnessTexture":{"index":5}}}],"textures":[{"sampler":0,"source":0},{"sampler":0,"source":1},{"sampler":0,"source":2},{"sampler":0,"source":3},{"sampler":0,"source":4},{"sampler":0,"source":5}],"images":[{"mimeType":"image/jpeg","name":"modular_fort_01_wall_nor_gl","uri":"../../PolyHaven/modular_fort_01/textures/modular_fort_01_wall_nor_gl_2k.jpg"},{"mimeType":"image/jpeg","name":"modular_fort_01_wall_diff","uri":"../../PolyHaven/modular_fort_01/textures/modular_fort_01_wall_diff_2k.jpg"},{"mimeType":"image/jpeg","name":"modular_fort_01_wall_rough","uri":"../../PolyHaven/modular_fort_01/textures/modular_fort_01_wall_arm_2k.jpg"},{"mimeType":"image/jpeg","name":"modular_fort_01_trim_nor_gl","uri":"../../PolyHaven/modular_fort_01/textures/modular_fort_01_trim_nor_gl_2k.jpg"},{"mimeType":"image/jpeg","name":"modular_fort_01_trim_diff","uri":"../../PolyHaven/modular_fort_01/textures/modular_fort_01_trim_diff_2k.jpg"},{"mimeType":"image/jpeg","name":"modular_fort_01_trim_rough","uri":"../../PolyHaven/modular_fort_01/textures/modular_fort_01_trim_arm_2k.jpg"}],"samplers":[{"magFilter":9729,"minFilter":9987}]}
