{
 "asset": {
  "version": "2.0",
  "generator": "ProjectE Tools/DemoMap/BuildBenchSquare.py"
 },
 "scene": 0,
 "scenes": [
  {
   "nodes": [
    0
   ]
  }
 ],
 "nodes": [
  {
   "name": "GroundTile",
   "mesh": 0
  }
 ],
 "meshes": [
  {
   "primitives": [
    {
     "attributes": {
      "POSITION": 0,
      "NORMAL": 1,
      "TEXCOORD_0": 2
     },
     "indices": 3,
     "material": 0
    }
   ]
  }
 ],
 "buffers": [
  {
   "uri": "GroundTile.bin",
   "byteLength": 142
  }
 ],
 "bufferViews": [
  {
   "buffer": 0,
   "byteOffset": 0,
   "byteLength": 48,
   "target": 34962
  },
  {
   "buffer": 0,
   "byteOffset": 48,
   "byteLength": 48,
   "target": 34962
  },
  {
   "buffer": 0,
   "byteOffset": 96,
   "byteLength": 32,
   "target": 34962
  },
  {
   "buffer": 0,
   "byteOffset": 128,
   "byteLength": 12,
   "target": 34963
  }
 ],
 "accessors": [
  {
   "bufferView": 0,
   "componentType": 5126,
   "count": 4,
   "type": "VEC3",
   "min": [
    -3,
    0,
    -3
   ],
   "max": [
    3,
    0,
    3
   ]
  },
  {
   "bufferView": 1,
   "componentType": 5126,
   "count": 4,
   "type": "VEC3"
  },
  {
   "bufferView": 2,
   "componentType": 5126,
   "count": 4,
   "type": "VEC2"
  },
  {
   "bufferView": 3,
   "componentType": 5123,
   "count": 6,
   "type": "SCALAR"
  }
 ],
 "materials": [
  {
   "name": "BenchCobblestone",
   "pbrMetallicRoughness": {
    "baseColorTexture": {
     "index": 0
    },
    "metallicRoughnessTexture": {
     "index": 1
    },
    "metallicFactor": 1.0,
    "roughnessFactor": 1.0
   },
   "normalTexture": {
    "index": 2
   },
   "occlusionTexture": {
    "index": 1
   }
  }
 ],
 "images": [
  {
   "uri": "../../PolyHaven/cobblestone_floor_04/cobblestone_floor_04_diff_2k.jpg"
  },
  {
   "uri": "../../PolyHaven/cobblestone_floor_04/cobblestone_floor_04_arm_2k.jpg"
  },
  {
   "uri": "../../PolyHaven/cobblestone_floor_04/cobblestone_floor_04_nor_gl_2k.jpg"
  }
 ],
 "textures": [
  {
   "source": 0,
   "sampler": 0
  },
  {
   "source": 1,
   "sampler": 0
  },
  {
   "source": 2,
   "sampler": 0
  }
 ],
 "samplers": [
  {
   "magFilter": 9729,
   "minFilter": 9987,
   "wrapS": 10497,
   "wrapT": 10497
  }
 ]
}
